<?xml version="1.0" encoding="UTF-8" standalone="no"?>
<!-- Created with Inkscape (http://www.inkscape.org/) -->

<svg
   xmlns:dc="http://purl.org/dc/elements/1.1/"
   xmlns:cc="http://creativecommons.org/ns#"
   xmlns:rdf="http://www.w3.org/1999/02/22-rdf-syntax-ns#"
   xmlns:svg="http://www.w3.org/2000/svg"
   xmlns="http://www.w3.org/2000/svg"
   xmlns:sodipodi="http://sodipodi.sourceforge.net/DTD/sodipodi-0.dtd"
   xmlns:inkscape="http://www.inkscape.org/namespaces/inkscape"
   width="720mm"
   height="800mm"
   viewBox="0 0 2551.1811 2834.6457"
   id="svg16887"
   version="1.1"
   inkscape:version="0.91 r13725"
   sodipodi:docname="travelpalmtreesymbol.svg">
  <defs
     id="defs16889">
    <inkscape:perspective
       id="perspective3191"
       inkscape:persp3d-origin="526.18108 : 248.03148 : 1"
       inkscape:vp_z="1052.3621 : 372.04723 : 1"
       inkscape:vp_y="0 : 999.99996 : 0"
       inkscape:vp_x="0 : 372.04723 : 1"
       sodipodi:type="inkscape:persp3d" />
    <clipPath
       clipPathUnits="userSpaceOnUse"
       id="clipPath3228">
      <path
         d="m 0,-0.3 842,0 L 842,595 0,595 0,-0.3 Z"
         id="path3230"
         inkscape:connector-curvature="0"
         style="clip-rule:evenodd" />
    </clipPath>
    <inkscape:perspective
       sodipodi:type="inkscape:persp3d"
       inkscape:vp_x="0 : 526.18107 : 1"
       inkscape:vp_y="0 : 999.99996 : 0"
       inkscape:vp_z="744.09445 : 526.18107 : 1"
       inkscape:persp3d-origin="372.04723 : 350.78738 : 1"
       id="perspective3220" />
  </defs>
  <sodipodi:namedview
     id="base"
     pagecolor="#ffffff"
     bordercolor="#666666"
     borderopacity="1.0"
     inkscape:pageopacity="0.0"
     inkscape:pageshadow="2"
     inkscape:zoom="0.22431634"
     inkscape:cx="1276.3315"
     inkscape:cy="1534.2666"
     inkscape:document-units="px"
     inkscape:current-layer="g4785"
     showgrid="false"
     showguides="false"
     fit-margin-top="0"
     fit-margin-left="0"
     fit-margin-right="0"
     fit-margin-bottom="0"
     inkscape:window-width="1916"
     inkscape:window-height="1035"
     inkscape:window-x="6"
     inkscape:window-y="4"
     inkscape:window-maximized="0" />
  <metadata
     id="metadata16892">
    <rdf:RDF>
      <cc:Work
         rdf:about="">
        <dc:format>image/svg+xml</dc:format>
        <dc:type
           rdf:resource="http://purl.org/dc/dcmitype/StillImage" />
        <dc:title></dc:title>
        <dc:creator>
          <cc:Agent>
            <dc:title>j4p4n</dc:title>
          </cc:Agent>
        </dc:creator>
        <cc:license
           rdf:resource="http://creativecommons.org/publicdomain/zero/1.0/" />
      </cc:Work>
      <cc:License
         rdf:about="http://creativecommons.org/publicdomain/zero/1.0/">
        <cc:permits
           rdf:resource="http://creativecommons.org/ns#Reproduction" />
        <cc:permits
           rdf:resource="http://creativecommons.org/ns#Distribution" />
        <cc:permits
           rdf:resource="http://creativecommons.org/ns#DerivativeWorks" />
      </cc:License>
    </rdf:RDF>
  </metadata>
  <g
     inkscape:label="Layer 1"
     inkscape:groupmode="layer"
     id="layer1"
     transform="translate(1159.9997,1338.8249)">
    <g
       transform="translate(-920.92039,-1257.6016)"
       inkscape:label="palmtree_02"
       style="display:block"
       id="layer3">
      <g
         transform="translate(-83.206,-62.977)"
         id="g3078">
        <g
           style="display:block;fill:#000000;fill-opacity:1"
           id="g4785">
          <g
             id="g18746"
             transform="matrix(2,0,0,2,-1084.1267,-1427.4255)" />
          <g
             id="g19217">
            <g
               transform="translate(31.908288,-31.908288)"
               id="g19017">
              <path
                 transform="matrix(2,0,0,2,-1084.1267,-1427.4255)"
                 inkscape:connector-curvature="0"
                 id="path18704"
                 d="m 1084.1267,732.94076 a 620,702.85712 0 0 0 -620.00002,702.85744 620,702.85712 0 0 0 63.36328,308.459 l 1113.90034,-2.3828 a 620,702.85712 0 0 0 62.7364,-306.0762 620,702.85712 0 0 0 -620,-702.85744 z"
                 style="display:block;opacity:1;fill:#ffcc00;fill-opacity:1;fill-rule:evenodd;stroke:none;stroke-width:1;stroke-linecap:round;stroke-linejoin:round;stroke-miterlimit:4;stroke-dasharray:none;stroke-opacity:1" />
              <path
                 transform="matrix(2,0,0,2,-1084.1267,-1427.4255)"
                 inkscape:connector-curvature="0"
                 id="path18710"
                 d="m 1084.1267,732.94076 a 620,702.85712 0 0 0 -44.0098,2.52149 620,702.85712 0 0 0 -33.9961,3.79492 620,702.85712 0 0 0 -25.79685,4.43555 620,702.85712 0 0 0 -36.62696,8.33789 620,702.85712 0 0 0 -22.20117,6.43945 620,702.85712 0 0 0 -38.73633,13.49414 620,702.85712 0 0 0 -18.58789,7.70508 620,702.85712 0 0 0 -40.17578,19.15625 620,702.85712 0 0 0 -15.12304,8.29297 620,702.85712 0 0 0 -40.86719,25.19922 620,702.85712 0 0 0 -11.8711,8.25976 620,702.85712 0 0 0 -40.74609,31.47657 620,702.85712 0 0 0 -8.95508,7.7246 620,702.85712 0 0 0 -39.76367,37.83008 620,702.85712 0 0 0 -6.38086,6.74414 620,702.85712 0 0 0 -37.92187,44.10157 620,702.85712 0 0 0 -4.25196,5.49218 620,702.85712 0 0 0 -35.19726,50.09178 620,702.85712 0 0 0 -2.5625,4.0684 620,702.85712 0 0 0 -31.63477,55.623 620,702.85712 0 0 0 -1.33789,2.6485 620,702.85712 0 0 0 -27.30273,60.5351 620,702.85712 0 0 0 -0.50196,1.2715 620,702.85712 0 0 0 -22.32812,64.7559 620,702.85712 0 0 0 -32.67774,208.5722 l 1238.92381,0 a 620,702.85712 0 0 0 -31.9394,-208.5722 620,702.85712 0 0 0 0,-0.01 620,702.85712 0 0 0 -15.7285,-45.9278 620,702.85712 0 0 0 -13.75,-34.916 620,702.85712 0 0 0 -12.8125,-28.5723 620,702.85712 0 0 0 -16.6914,-33.0605 620,702.85712 0 0 0 -15.3399,-27.1074 620,702.85712 0 0 0 -19.4257,-30.8555 620,702.85712 0 0 0 -17.7578,-25.39453 620,702.85712 0 0 0 -21.9161,-28.33594 620,702.85712 0 0 0 -20.0703,-23.44922 620,702.85712 0 0 0 -24.123,-25.52344 620,702.85712 0 0 0 -22.1934,-21.21289 620,702.85712 0 0 0 -26.1074,-22.54297 620,702.85712 0 0 0 -24.1231,-18.72656 620,702.85712 0 0 0 -27.7539,-19.33008 620,702.85712 0 0 0 -25.8671,-16.03711 620,702.85712 0 0 0 -29.0782,-15.96289 620,702.85712 0 0 0 -27.4375,-13.16797 620,702.85712 0 0 0 -30.0371,-12.46679 620,702.85712 0 0 0 -28.7422,-10.09571 620,702.85712 0 0 0 -30.7168,-8.92578 620,702.85712 0 0 0 -29.7636,-6.85547 620,702.85712 0 0 0 -31.0528,-5.35546 620,702.85712 0 0 0 -30.5254,-3.48829 620,702.85712 0 0 0 -46.414,-2.68164 z"
                 style="display:block;opacity:1;fill:#ff9e00;fill-opacity:1;fill-rule:evenodd;stroke:none;stroke-width:1;stroke-linecap:round;stroke-linejoin:round;stroke-miterlimit:4;stroke-dasharray:none;stroke-opacity:1" />
              <path
                 transform="matrix(2,0,0,2,-1084.1267,-1427.4255)"
                 inkscape:connector-curvature="0"
                 id="path18723"
                 d="m 1084.1267,732.94076 a 620,702.85712 0 0 0 -44.0098,2.52149 620,702.85712 0 0 0 -33.9961,3.79492 620,702.85712 0 0 0 -25.79685,4.43555 620,702.85712 0 0 0 -36.62696,8.33789 620,702.85712 0 0 0 -22.20117,6.43945 620,702.85712 0 0 0 -38.73633,13.49414 620,702.85712 0 0 0 -18.58789,7.70508 620,702.85712 0 0 0 -40.17578,19.15625 620,702.85712 0 0 0 -15.12304,8.29297 620,702.85712 0 0 0 -40.86719,25.19922 620,702.85712 0 0 0 -11.8711,8.25976 620,702.85712 0 0 0 -40.74609,31.47657 620,702.85712 0 0 0 -8.95508,7.7246 620,702.85712 0 0 0 -39.76367,37.83008 620,702.85712 0 0 0 -6.38086,6.74414 620,702.85712 0 0 0 -37.92187,44.10157 620,702.85712 0 0 0 -4.25196,5.49218 620,702.85712 0 0 0 -35.19726,50.09178 620,702.85712 0 0 0 -2.5625,4.0684 620,702.85712 0 0 0 -31.63477,55.623 620,702.85712 0 0 0 -1.33789,2.6485 620,702.85712 0 0 0 -27.30273,60.5351 620,702.85712 0 0 0 -0.50196,1.2715 620,702.85712 0 0 0 -6.5664,19.041 l 1142.89065,0 a 620,702.85712 0 0 0 -0.076,-0.2207 620,702.85712 0 0 0 -13.75,-34.916 620,702.85712 0 0 0 -12.8125,-28.5723 620,702.85712 0 0 0 -16.6914,-33.0605 620,702.85712 0 0 0 -15.3399,-27.1074 620,702.85712 0 0 0 -19.4257,-30.8555 620,702.85712 0 0 0 -17.7578,-25.39453 620,702.85712 0 0 0 -21.9161,-28.33594 620,702.85712 0 0 0 -20.0703,-23.44922 620,702.85712 0 0 0 -24.123,-25.52344 620,702.85712 0 0 0 -22.1934,-21.21289 620,702.85712 0 0 0 -26.1074,-22.54297 620,702.85712 0 0 0 -24.1231,-18.72656 620,702.85712 0 0 0 -27.7539,-19.33008 620,702.85712 0 0 0 -25.8671,-16.03711 620,702.85712 0 0 0 -29.0782,-15.96289 620,702.85712 0 0 0 -27.4375,-13.16797 620,702.85712 0 0 0 -30.0371,-12.46679 620,702.85712 0 0 0 -28.7422,-10.09571 620,702.85712 0 0 0 -30.7168,-8.92578 620,702.85712 0 0 0 -29.7636,-6.85547 620,702.85712 0 0 0 -31.0528,-5.35546 620,702.85712 0 0 0 -30.5254,-3.48829 620,702.85712 0 0 0 -46.414,-2.68164 z"
                 style="display:block;opacity:1;fill:#ff7f00;fill-opacity:1;fill-rule:evenodd;stroke:none;stroke-width:1;stroke-linecap:round;stroke-linejoin:round;stroke-miterlimit:4;stroke-dasharray:none;stroke-opacity:1" />
              <path
                 transform="matrix(2,0,0,2,-1084.1267,-1427.4255)"
                 inkscape:connector-curvature="0"
                 id="path18729"
                 d="m 1084.1267,732.94076 a 620,702.85712 0 0 0 -44.0098,2.52149 620,702.85712 0 0 0 -33.9961,3.79492 620,702.85712 0 0 0 -25.79685,4.43555 620,702.85712 0 0 0 -36.62696,8.33789 620,702.85712 0 0 0 -22.20117,6.43945 620,702.85712 0 0 0 -38.73633,13.49414 620,702.85712 0 0 0 -18.58789,7.70508 620,702.85712 0 0 0 -40.17578,19.15625 620,702.85712 0 0 0 -15.12304,8.29297 620,702.85712 0 0 0 -40.86719,25.19922 620,702.85712 0 0 0 -11.8711,8.25976 620,702.85712 0 0 0 -40.74609,31.47657 620,702.85712 0 0 0 -8.95508,7.7246 620,702.85712 0 0 0 -39.76367,37.83008 620,702.85712 0 0 0 -6.38086,6.74414 620,702.85712 0 0 0 -22.125,25.73047 l 892.53901,0 a 620,702.85712 0 0 0 -12.6406,-14.76953 620,702.85712 0 0 0 -24.123,-25.52344 620,702.85712 0 0 0 -22.1934,-21.21289 620,702.85712 0 0 0 -26.1074,-22.54297 620,702.85712 0 0 0 -24.1231,-18.72656 620,702.85712 0 0 0 -27.7539,-19.33008 620,702.85712 0 0 0 -25.8671,-16.03711 620,702.85712 0 0 0 -29.0782,-15.96289 620,702.85712 0 0 0 -27.4375,-13.16797 620,702.85712 0 0 0 -30.0371,-12.46679 620,702.85712 0 0 0 -28.7422,-10.09571 620,702.85712 0 0 0 -30.7168,-8.92578 620,702.85712 0 0 0 -29.7636,-6.85547 620,702.85712 0 0 0 -31.0528,-5.35546 620,702.85712 0 0 0 -30.5254,-3.48829 620,702.85712 0 0 0 -46.414,-2.68164 z"
                 style="display:block;opacity:1;fill:#ff4800;fill-opacity:1;fill-rule:evenodd;stroke:none;stroke-width:1;stroke-linecap:round;stroke-linejoin:round;stroke-miterlimit:4;stroke-dasharray:none;stroke-opacity:1" />
              <ellipse
                 transform="matrix(2,0,0,2,-1084.1267,-1427.4255)"
                 ry="288.57144"
                 rx="307.14285"
                 cy="1441.5123"
                 cx="1094.1265"
                 id="path18734"
                 style="display:block;opacity:1;fill:#ffeb00;fill-opacity:1;fill-rule:evenodd;stroke:none;stroke-width:1;stroke-linecap:round;stroke-linejoin:round;stroke-miterlimit:4;stroke-dasharray:none;stroke-opacity:1" />
              <g
                 style="display:block;fill:#353d42;fill-opacity:1"
                 transform="matrix(2,0,0,2,-1249.841,-1844.5684)"
                 id="g18651">
                <path
                   d="m 1027.5,1316.9 c 41.3,25.2 80.1,33 112.6,66.2 26.3,26.9 42.9,62.4 53.2,97.4 2.9,9.8 7.5,36.5 7.3,48.1 -1.8,-5 -3.7,-11.3 -5.7,-16.6 2.8,14.3 2.3,41.1 -3.3,58.8 -3.7,-6 -4.4,-12.1 -5.2,-19.5 -3.9,2.8 -7.8,5.6 -11.7,8.5 1.1,-3.9 2,-10 0.6,-15.7 -6.3,2 -12.6,3.9 -18.9,5.9 -3.6,-10.3 -5.4,-20.7 -5.2,-31.3 -6,-2.4 -10.4,-2.9 -16.2,-2.6 -3.8,-13 -8.4,-48 -9.6,-71.7 -20.1,-50.3 -55.9,-76 -97.9,-127.5 z"
                   style="fill:#353d42;fill-opacity:1;fill-rule:evenodd"
                   sodipodi:nodetypes="cssccccccccccc"
                   id="path3609"
                   inkscape:connector-curvature="0" />
                <path
                   d="m 1513.9,1938.1 c 21,2.2 31.4,2.6 57.3,0.6 -22.4,-23.7 -40.7,-47.3 -59.1,-72.1 -42,-56.7 -98.7,-116.2 -157.1,-164.9 -63.9,-53.4 -128.5,-102 -191.4,-151.7 -39.6,-31.3 -69.2,-75.9 -96.4,-117.9 -10.6,-16.4 -15.6,-38.3 -16.9,-57.3 -0.7,-9.7 7.4,-19.1 11.1,-28.6 -8.1,-6.5 -16.1,-13 -24.1,-19.5 -14.6,6 -29.1,12.1 -43.64,18.2 12.54,19.5 26.34,38.4 37.74,58.6 6.9,12.1 7.6,27.1 15.5,38.6 22.1,32.3 43.8,66.9 71.9,94.9 32.6,32.3 71.4,58.5 105.9,88.4 20,17.4 39.6,34.6 60,51.6 43.1,35.8 83,71.4 121.8,109.4 46.7,45.7 88.8,98.3 107.4,151.7 z"
                   style="fill:#353d42;fill-opacity:1;fill-rule:evenodd"
                   sodipodi:nodetypes="ccssssscccssssssc"
                   id="path3567"
                   inkscape:connector-curvature="0" />
                <path
                   d="m 1437.5,1780.4 c -4.1,-2.4 -20.4,11.2 -17.5,16 9.5,10.2 19,20.4 28.5,30.5 -3.1,-4.7 13.3,-18 18.5,-13.5 -9.8,-11 -19.7,-22 -29.5,-33 z"
                   style="fill:#353d42;fill-opacity:1;fill-rule:evenodd"
                   sodipodi:nodetypes="ccccc"
                   id="path6857"
                   inkscape:connector-curvature="0" />
                <path
                   d="m 1320.5,1674.4 c -5.5,-4.8 -22.3,10.9 -15.3,18 8.4,7.9 17.7,15.4 26.6,22.8 -4.5,-5.3 7.9,-23.3 14.4,-19.5 -9.1,-7.3 -16.5,-14 -25.7,-21.3 z"
                   style="fill:#353d42;fill-opacity:1;fill-rule:evenodd"
                   sodipodi:nodetypes="ccccc"
                   id="path3195"
                   inkscape:connector-curvature="0" />
                <path
                   d="m 1377.1,1755.8 c -4,-4.6 12.5,-22.4 16.9,-18.4 13.2,12.7 26.7,25.4 39.5,38 -3.4,-2.8 -21.1,13.1 -17.7,17.4 -12.8,-12.5 -27.4,-23.6 -38.7,-37 z"
                   style="fill:#353d42;fill-opacity:1;fill-rule:evenodd"
                   sodipodi:nodetypes="ccccc"
                   id="path2287"
                   inkscape:connector-curvature="0" />
                <path
                   d="m 1315.2,1670.9 c -5.7,-3.9 -19.2,13.6 -15.7,16.7 -7.3,-4.9 -17.7,-13.6 -26.3,-21.5 -3.9,-3.8 10.6,-20.3 14.2,-17.9 9.3,7.3 18.5,14.6 27.8,22.7 z"
                   style="fill:#353d42;fill-opacity:1;fill-rule:evenodd"
                   sodipodi:nodetypes="ccccc"
                   id="path4085"
                   inkscape:connector-curvature="0" />
                <path
                   d="m 1281.8,1644 c -4.1,-1.2 -15.8,13.3 -13.1,17.3 -8.3,-7.6 -16.8,-13.7 -25.1,-21.4 -1.9,-3 10.7,-16.8 14.3,-14.8 8,6.4 15.8,12.5 23.9,18.9 z"
                   style="fill:#353d42;fill-opacity:1;fill-rule:evenodd"
                   sodipodi:nodetypes="ccccc"
                   id="path4087"
                   inkscape:connector-curvature="0" />
                <path
                   d="m 1237.2,1634.5 c -1.9,-2.4 10.8,-15.5 13.9,-14.4 -7.2,-6.2 -15.2,-11.9 -22.4,-18.1 -4.2,-2 -15.6,11 -14.8,13 7.5,6.8 15.8,12.9 23.3,19.5 z"
                   style="fill:#353d42;fill-opacity:1;fill-rule:evenodd"
                   sodipodi:nodetypes="ccccc"
                   id="path4089"
                   inkscape:connector-curvature="0" />
                <path
                   d="m 1049.1,1356.5 c -0.4,18.2 3.2,46.4 11.3,64.4 4.3,9.7 38.9,61.3 55.6,81.5 l -78.5,-70 -21,-85 32.6,9.1 z"
                   style="fill:#353d42;fill-opacity:1;fill-rule:evenodd"
                   sodipodi:nodetypes="cscccc"
                   id="path5972"
                   inkscape:connector-curvature="0" />
                <path
                   d="m 1004.4,1269.6 -42.75,11.8 -1.24,40.2 15.48,47.7 38.71,21.1 c 6,-22.4 30.6,-20 36.1,-40.1 l 2,-32.4 13.6,-32.8 -15.5,-13 -46.4,-2.5 z"
                   style="fill:#353d42;fill-opacity:1;fill-rule:evenodd"
                   sodipodi:nodetypes="cccccccccc"
                   id="path2870"
                   inkscape:connector-curvature="0" />
                <path
                   d="m 962.77,1299.3 c -27.78,5.3 -55.46,11.2 -83.34,15.7 -50.68,8.2 -95.19,22.8 -125.24,44.7 -22.28,16.1 -50.8,47.4 -53.87,53.8 -1.48,9.4 1.61,18.1 0.46,27.2 2.45,-8.3 2.63,-17.9 7.37,-24.9 -0.77,6.2 -1.54,12.3 -2.31,18.4 4.85,-6.6 6.45,-15.3 9.67,-23 0.46,6.6 0.09,12.5 1.06,18.7 1.71,-4.4 3.6,-19.3 5.85,-27.9 3.14,6 4.6,31.8 4.6,31.8 3.53,-12.1 5.6,-24.6 10.59,-36.4 -1.97,9.9 -1.01,17.2 0.92,25.3 0.38,-6.6 2.06,-11.8 5.53,-17 0.55,5.4 2.56,10 5.06,14.3 1.54,-9.8 1.45,-19.8 4.61,-29.5 0.77,6.8 1.53,13.5 2.3,20.3 3.47,-7.8 8.09,-14 13.35,-20.8 -1.76,7.4 -2.38,13.9 -1.38,20.8 3.84,-9.2 7.68,-18.5 11.51,-27.7 -1.53,7.3 -2.15,13.5 -1.84,20.3 4.61,-8.4 6.45,-17.7 11.05,-25.8 -0.84,7.8 -1.23,14.1 0.92,20.7 4.91,-8.1 10.75,-14.4 17.5,-21.6 1.69,6.6 3.38,13.2 5.06,19.8 3.53,-11.6 10.29,-19.5 18.88,-28.6 -2.53,7 -0.92,13.3 0,18.9 3.3,-10.6 7.98,-18.2 14.74,-27.6 l 0,24.4 c 4.45,-9.4 8.9,-18.7 13.35,-28.1 -2.38,8.8 -3.61,15.7 -3.69,22.1 2.92,-9.7 10.44,-16.1 12.9,-26.2 -0.77,9.9 3.07,18.4 4.6,27.6 2.84,-10.7 7.06,-20.2 13.35,-29.9 0.16,4.6 0.31,9.2 0.46,13.8 2.92,-7.7 11.36,-13.8 14.28,-21.4 0.14,11.4 5.83,12.8 11.51,20 0.83,-8.3 9.14,-29.3 15.18,-36 8.93,-4.2 29.33,-17.4 33.09,-20.7 l 1.92,-5.5 z"
                   style="fill:#353d42;fill-opacity:1;fill-rule:evenodd"
                   sodipodi:nodetypes="cssccccccccccccccccccccccccccccccccccccc"
                   id="path3587"
                   inkscape:connector-curvature="0" />
                <path
                   d="m 995.61,1282.4 c -2.61,-10.1 -11.4,-16.6 -13.68,-27.4 l 7.82,0 c -1.3,-7.1 -2.61,-14.3 -3.91,-21.5 4.99,-4.5 9.99,-2.6 14.96,-3.9 -0.1,-8.5 0.5,-21 -2.59,-28.6 9.19,-5.8 13.29,-3.4 22.19,-2.6 5.1,-11.7 18.3,-19.7 22.1,-29.3 11.2,-2.7 22.5,-5.9 35.5,0.6 -3.4,3.8 -3.8,7 -3.3,12.4 7.7,-2.7 28.8,-0.9 40.7,13 -5.6,0.2 -11.6,-1.5 -16.9,0.7 3.2,4.7 6.5,9.5 9.8,14.3 -4.4,3 -8.7,6.1 -13.1,9.1 -0.6,3.9 -1.3,7.8 -1.9,11.7 -9.8,3.5 -18.6,10.6 -29.3,10.4 4.2,3.1 7.1,7.4 7.8,13.1 -8.3,4.7 -15.9,11.8 -24.8,14.3 -2.8,7.9 -10.2,9 -12.3,16.9 -8.9,2.8 -16.2,-8.3 -22.8,-5.2 l -5.2,16.9 -16.95,-3.2 5.86,-11.7 z"
                   style="fill:#353d42;fill-opacity:1;fill-rule:evenodd"
                   sodipodi:nodetypes="ccccccccccccccccccccccc"
                   id="path3611"
                   inkscape:connector-curvature="0" />
                <path
                   d="m 995.61,1292.5 c -7.81,-11.1 -31.58,-17.6 -39.4,-28.7 -7.16,2 -22.79,-3.6 -24.09,1.6 -5.75,-5.5 -16.06,-7.1 -20.81,-10.9 0,0 2.61,-9.8 0,-11.1 -2.27,2.3 -2.38,1.4 -9.76,5.1 -10.37,-4.5 -7.87,-4.3 -15.96,-9.4 5.21,-5.7 5.86,-7.4 12.05,-12.6 -8.19,2.4 -10.53,7.6 -20.51,7.3 -3.08,-6.7 -5.34,-13.8 -7.23,-20.5 -6.43,-0.3 -8.79,0 -16.64,0.9 -1.8,-7.3 -2.13,-9.4 -3.87,-17.3 -5.53,-3.6 -11.83,0.7 -16.54,-0.7 0.35,-3.7 0.71,-6.9 1.88,-11 2.37,-1.9 10.58,-6 16.17,-7 0.98,-3.3 1.57,-5.8 2.35,-9.2 7.59,3.5 42.15,7.7 58.36,19.3 0.38,3.9 1.09,11.5 1.95,16.6 1.63,-3.7 1.63,-7.4 2.93,-10.8 3.26,2.1 14.82,4.7 18.24,7.9 -2.61,4.3 -3.26,6 -3.91,8.4 2.22,-2.2 4.12,-4.2 6.51,-5.5 13.24,7.8 40.48,41.3 53.72,49.1 3.69,10.7 6.4,11.7 10.05,22.3 l -5.49,16.2 z"
                   style="fill:#353d42;fill-opacity:1;fill-rule:evenodd"
                   sodipodi:nodetypes="ccccccccccccccccccccccccc"
                   id="path3613"
                   inkscape:connector-curvature="0" />
                <path
                   d="m 996.91,1291.5 c 34.69,-13.9 65.49,-31.9 100.99,-44.4 32.8,-11.7 70.5,-20.5 104.8,-23.3 33.7,-2.8 89.3,16.9 103.5,24.7 14.4,8 29.2,18.2 40.4,29.3 -12,1.5 -23.9,4.7 -35.8,4.6 -17,-9.1 -31,-21.4 -48.2,-30.6 7.4,6.7 14.7,13.4 22.1,20.2 -14.6,-8.3 -28.3,-16 -39.7,-26.1 2.8,8.5 8.7,16.9 11.7,25.4 -11.9,-7.2 -25.2,-13.2 -35.8,-21.5 0.1,5.9 1.9,11.5 4.6,17.6 -5.7,-1.7 -11.6,-5.9 -15,-9.1 -5.9,2.1 -11.6,5.6 -16.3,9.7 -7.5,-0.9 -17.4,2.3 -25.4,0.7 -0.7,3.9 0.8,8.3 2.6,11.7 -33.2,-6.3 -66.3,-7.9 -99,-5.8 -25.5,1.6 -50.3,11.2 -75.49,16.9 z"
                   style="fill:#353d42;fill-opacity:1;fill-rule:evenodd"
                   sodipodi:nodetypes="csssccccccccccccsc"
                   id="path3615"
                   inkscape:connector-curvature="0" />
                <path
                   d="m 1004.7,1296.7 c 18.5,-8.5 36.7,-17.7 55.4,-25.4 20.2,-8.3 38.9,-11.9 64.9,-12.3 36.5,-0.6 67,18.3 89.1,41.7 14,14.9 23.9,40.5 25.7,56.6 -6.6,-6.3 -10.7,-12.4 -13.7,-19.6 -4.2,4.3 -6.8,9.5 -7.8,15.6 -4,-6.9 -6.2,-12.5 -6.5,-20.1 -2,8.4 -2.6,10.4 -3.9,15.6 -4,-7.4 -7.7,-15.6 -9.1,-24.1 -2.1,9.4 -5.8,17 -10.5,23.4 -0.4,-6.9 -2.9,-12 -1.3,-20.8 -6.9,6.5 -5.6,12.2 -8.4,18.2 -1.8,-8.4 -6,-15.7 -5.2,-25.4 -3.3,5.9 -6.5,11.8 -9.8,17.6 -3,-11.3 -8.8,-20.3 -9.1,-33.8 -2.8,9.1 -7.5,17.7 -8.5,27.3 -11,-10.3 -18.3,-21.6 -24.1,-34.5 1.9,5.6 1,9.9 0,16.9 -7.8,-1.6 -13.4,-4.2 -21.5,-9.7 -2.3,1.7 -4.7,3.4 -7.1,5.2 -6.9,-3.6 -11.2,-8.5 -13,-18.3 -4.4,9.3 -8.8,11.2 -16.8,14.9 -5.2,-0.7 -8.4,-0.8 -11.8,-2.3 2.2,-6.7 0.5,-7.4 1.7,-14.2 -6.2,6.8 -4,7.1 -10.6,10.3 -7.8,0.7 -29,1.1 -36.8,1.8 -0.4,-1.6 -0.8,-3.1 -1.3,-4.6 z"
                   style="fill:#353d42;fill-opacity:1;fill-rule:evenodd"
                   sodipodi:nodetypes="cssscccccccccccccccccccccccc"
                   id="path3601"
                   inkscape:connector-curvature="0" />
                <path
                   d="m 995.92,1285.5 c -26.82,-15.1 -75.95,-42.1 -113.65,-43.2 -40.08,-1.1 -79.97,12 -93.55,21.1 7.52,-0.4 14.35,0.6 21.18,2.3 -7.06,5.6 -9.51,10.5 -14.27,18.9 5.45,-6.5 10.43,-6.1 15.65,-9.2 -1.46,5.4 -6.6,8.7 -7.82,14.7 6.52,-2 10.28,0.5 17.49,-1.3 -2.15,6.3 -7.75,11.5 -9.21,18.4 5.68,-3 11.82,-2.3 17.04,-5.6 0.08,6 2.22,9 3.68,15.2 5.14,-3.3 7.29,-9.5 11.97,-12.9 3.69,5.9 3.23,11.5 6.91,17.5 3.84,-8.4 8.6,-13.4 11.51,-21.1 1.31,4.8 5.83,7.8 7.37,12.4 0.69,-7.3 5.75,-14.1 6.9,-21.2 3,11.1 3,22 5.53,32.7 0.38,-8.6 1.92,-17.2 4.6,-25.8 0.31,8.5 1.54,15.7 4.84,23.5 2.76,-10 5.06,-18.6 4.37,-28.5 2.92,8.4 5.83,16.8 8.75,25.3 -0.15,-6.3 -0.31,-12.6 -0.46,-18.9 2,4.3 3.99,8.6 5.99,12.9 -1.54,-13.2 -4.68,-25.9 -4.61,-39.6 3.46,13.2 10.13,28.2 15.2,42.4 -1.85,-10.9 -2.08,-21.4 -3.92,-32.3 1.66,1.5 3.17,1.7 3.69,2.6 2.91,8.6 6.98,14.2 14.04,22.3 0.61,-5.2 2.61,-10.4 5.98,-14.3 3.23,-0.9 41.06,-4.7 46.74,-4.6 l 8.06,-3.7 z"
                   style="fill:#353d42;fill-opacity:1;fill-rule:evenodd"
                   sodipodi:nodetypes="csccccccccccccccccccccccccccccc"
                   id="path3591"
                   inkscape:connector-curvature="0" />
                <path
                   d="m 741.76,1299.3 c 9.09,-4.7 46.01,-19.4 79.05,-26.6 18.22,-4 59.44,-6.1 77.99,-4.4 31.03,2.9 58.44,9.1 89.29,14.9 l -19.34,11.5 c -22.27,2.3 -39.97,6 -61.93,11.1 -15.34,3.6 -34.61,9.7 -49.95,15.2 -3.69,-6.5 -9,-11.9 -11.05,-19.4 -13.13,12 -27.88,21.6 -43.29,30 3.69,-4.6 7.37,-9.2 11.05,-13.8 -6.13,1.6 -12.27,3.3 -18.41,5 2.91,-6.3 5.83,-12.6 8.75,-18.9 -5.99,4 -11.98,8 -17.96,12 3.38,-4.4 6.75,-8.9 10.13,-13.3 -9.96,4.4 -19.59,12.3 -30.85,16.1 2.76,-2.9 5.52,-5.9 8.29,-8.8 -5.07,1.9 -10.13,3.7 -15.2,5.6 -6.5,-4.1 -8.12,-9.5 -16.57,-16.2 z"
                   style="fill:#353d42;fill-opacity:1;fill-rule:evenodd"
                   sodipodi:nodetypes="cssccscccccccccccc"
                   id="path3593"
                   inkscape:connector-curvature="0" />
                <path
                   d="m 944.35,1332.5 c -33.15,29 -53.31,44.6 -83.8,76 -13.41,13.7 -48.32,58.6 -56.63,75.9 -12.57,26.3 -18.88,43.5 -22.57,70.5 0.54,6.8 2.39,13.2 5.53,19.3 0.46,-3.5 0.92,-7 1.38,-10.6 1.84,2.3 3.68,4.6 5.53,6.9 1.14,-10.6 -0.65,-21.1 0,-31.7 2.14,4.1 4.29,8.3 6.44,12.4 2.36,-4.4 3.42,-9.8 4.15,-15.2 2.87,4.8 7.85,7.3 11.05,12.4 -1.92,-7.3 -2.53,-14.7 -1.85,-22.1 4,4 7.99,8 11.98,12 -2.61,-6.9 -5.22,-13.8 -7.83,-20.7 3.68,4.3 7.37,8.6 11.05,12.9 -1.11,-4.9 -1.57,-9.7 -1.38,-15.2 4.5,5.3 7.85,10.4 11.05,16.6 -0.11,-6.5 -1.19,-12.3 -2.76,-18.5 1.68,3.4 3.37,6.8 5.06,10.2 -1.99,-7.9 -3.99,-15.7 -5.99,-23.5 3.65,5.9 9.83,9.2 14.74,13.8 -3.15,-5.2 -5.72,-11.9 -7.37,-18.4 4.03,4.2 6.68,8 9.67,13.8 2.03,-7.4 0.61,-15.3 0.92,-23 3.22,4 6.45,8 9.67,11.9 0.35,-5.4 -2.76,-10.4 -4.14,-15.6 3.68,5.4 7.59,9.6 11.05,16.1 -2.77,-12 -6.56,-24.1 -11.05,-35.4 5.25,6.9 7.98,15 11.97,22.5 -0.96,-9.8 -3.99,-19.3 -5.99,-29 3.92,11 10.13,18.7 15.2,28.1 -1.08,-4.5 -2.15,-8.9 -3.23,-13.4 3.69,-1 6.22,-1.1 9.67,-0.4 -4.79,-9.5 -7.98,-19.4 -11.97,-29 4.61,8 9.21,15.9 13.81,23.9 -0.3,-5.5 -0.61,-11 -0.92,-16.6 3.23,0.8 6.45,1.6 9.67,2.3 0.31,-3.6 0.62,-7.3 0.92,-11 3.99,1.2 7.98,2.5 11.97,3.7 -1.38,-5.9 -2.76,-11.7 -4.14,-17.5 3.84,2.3 5.49,5.2 7.37,8.3 2.3,-5.2 4.6,-10.5 6.9,-15.7 1.69,0.8 3.38,1.5 5.07,2.3 0.27,-5.5 -0.5,-11 1.84,-14.3 0.77,-11.7 15.1,-52.7 21.87,-63.3 l -3.91,-11.7 z"
                   style="fill:#353d42;fill-opacity:1;fill-rule:evenodd"
                   sodipodi:nodetypes="cssccccccccccccccccccccccccccccccccccccccccccc"
                   id="path3589"
                   inkscape:connector-curvature="0" />
                <path
                   d="m 990.39,1303.5 c -3.68,37.3 -14.43,61 -30.85,95.8 -12.6,26.6 -27.26,62.4 -33.61,96.6 -4.36,23.6 0.79,66.4 6.91,74.8 2.3,-2 2.46,-2.4 6.14,-4.2 2.98,6.3 2.87,10.8 6.46,16 -0.5,-5.3 1.36,-8.2 2.23,-11.4 1.36,2.4 12.78,26.3 12.78,26.3 1.81,-5 2.26,-9.5 5.54,-15.4 2.04,9.4 7.19,11.9 11.83,20 -0.34,-12.7 -1.69,-16.9 1.06,-25.9 2.2,6.6 6.35,12 11.97,16.1 -3.07,-10.2 -6.14,-20.3 -9.21,-30.4 7.31,6.7 15.6,11.7 24.86,16.1 -4.7,-9.5 -7.05,-18.7 -10.58,-28.1 7.98,3.9 15.68,4.6 23.48,6.9 -1.7,-7.3 -7.2,-39 -12.4,-51.1 5.4,0.4 8.9,-2.4 13.3,-3.7 -1.9,-5.6 -1.6,-11.3 -3.7,-17.9 3.9,1.2 7.7,2.4 11.5,3.7 -1,-8.8 -1.3,-17.5 -3.2,-26.3 2.5,-5.4 4.9,-10.7 7.4,-16.1 -3.7,-13.6 -1.9,-30.1 -4.6,-44.7 -10.1,-7.7 -30.95,-57.9 -27.6,-93.9 -3.26,-1.1 -6.49,-2.1 -9.71,-3.2 z"
                   style="fill:#353d42;fill-opacity:1;fill-rule:evenodd"
                   sodipodi:nodetypes="csscccccccccccccccccccccc"
                   id="path3597"
                   inkscape:connector-curvature="0" />
                <path
                   d="m 1011.9,1373.2 c 1.7,15.4 2.9,31.2 -1.7,47.4 4,8.1 6,11.8 8.8,20.6 -3.7,5.8 -6.2,13.5 -9.3,21.1 -0.7,9.9 -1.6,23.2 -9.1,32.5 2.9,5.2 5,10.1 7.9,15.3 -0.5,-1.7 -1,-2.9 -1.7,-4.6 2.7,0.5 10.7,-1.8 13.1,-4.8 l 17,-60.8 c -8.3,-22.2 -16,-44.7 -25,-66.7 z"
                   style="fill:#353d42;fill-opacity:1;fill-rule:evenodd"
                   sodipodi:nodetypes="cccccccccc"
                   id="path3145"
                   inkscape:connector-curvature="0" />
                <path
                   d="m 995,1331.4 c -1.33,20.9 3.25,43.4 0.5,64 -5.08,38.2 -13,76 -19.5,114 5.67,-38.1 11.91,-76.2 17,-114.5 2.74,-20.6 -0.17,-42.8 2,-63.5 z"
                   style="fill:#353d42;fill-opacity:1;fill-rule:evenodd"
                   sodipodi:nodetypes="cscsc"
                   id="path3874"
                   inkscape:connector-curvature="0" />
                <path
                   d="m 984.88,1334.9 c 1.13,7.2 2.79,13 4.62,20 -2.83,-0.5 -5.67,-1 -8.5,-1.5 1.31,6 2.71,12 5,18 -2.67,-1.8 -5.33,-3.6 -8,-5.5 0.81,5.9 1.8,11.5 3.5,17.5 -1.83,-0.5 -3.67,-1 -5.5,-1.5 0.65,3.4 4.15,7.7 5.5,10.8 -1.17,0.3 -2.58,-0.4 -3.75,0 0.11,6.4 1.41,14.2 -0.25,20.7 -4.77,3.4 -5.2,4.4 -9.7,10.2 2.84,8.7 4.18,20.7 5.7,28.8 -4.72,2.9 -4.53,4.9 -9.25,7.8 2.57,9.8 0.05,25 3.5,35 -3.42,1.7 -9.48,6.8 -13.75,5 -2.39,1.5 -5.65,5.1 -7.25,6.5 3.63,8 0.5,37.7 2,49.7 -2.09,-0.8 -7.03,-1.8 -8.66,-2.9 -2,3.7 -3.75,10.5 -4.75,14.3 -0.85,0.6 -1.67,1.3 -2.31,2.1 -6,-11.8 -11.53,-25.1 -17.53,-37 8.5,-38.8 17,-77.6 25.5,-116.5 10.33,-13.8 19.87,-28 30.2,-41.8 l 3.3,-7.2 -9.5,-28.5 11,-23.5 9.16,-10.9 3.76,9.5 -1.63,9.3 c 2.5,6 4.91,14 8.21,19.6 -3.83,-3 -6.78,-4.1 -10.62,-8 z"
                   style="fill:#353d42;fill-opacity:1;fill-rule:evenodd"
                   sodipodi:nodetypes="ccccccccccccccccccccccccccccccc"
                   id="path2402"
                   inkscape:connector-curvature="0" />
                <path
                   d="m 972.43,1313.6 c -20.25,50.7 -66.3,90.3 -91.16,139.5 4.6,-1.3 5.52,0.6 8.29,0.9 -9.6,11.4 -18.04,24.4 -23.95,36.9 1.54,-0.2 3.07,-0.3 4.61,-0.5 -8.06,12.6 -14.05,25.4 -16.58,39.2 3.53,0.6 4.3,3 6.45,4.6 0.69,11.5 -4.38,28.4 -2.76,43.7 1.84,-3.5 3.68,-7.1 5.52,-10.6 4.45,7.8 4.3,16.7 9.21,24 -0.08,-5.6 3.07,-9.6 5.99,-13.4 3.68,4.1 2.3,10.6 6.9,13.8 -1.3,-7 1.54,-12.3 2.3,-18.4 4.45,8.6 6.6,15.8 7.83,23 4.38,2 5.99,1.2 9.67,0.7 -0.15,-4.1 0.61,-6.7 0.92,-10.3 3.22,-0.4 5.07,2.6 8.29,2.3 1.99,-4.2 2.15,-7.9 5.98,-12.5 2.31,-1.1 4.61,-2.1 6.91,-3.2 -2.15,-4.1 -4.3,-8.3 -6.44,-12.4 3.06,2.3 6.13,4.6 9.2,6.9 3.3,-8.2 -0.76,-18.8 2.31,-29.5 2.61,2 5.21,4 7.82,6 -1.99,-12 -0.76,-24.4 -5.98,-35.9 3.68,-3.1 5.98,-7.3 11.05,-9.2 6.83,2.7 10.43,-2.5 15.65,-3.7 -3.68,-8.4 -1.84,-15.4 -2.76,-23 4.76,-2.4 8.6,-7.1 12.89,-10.6 -0.61,-12.4 -13.04,-30.7 -12.43,-41 5.53,-3.2 5.53,-8.6 15.2,-12.9 2.14,-11.7 1.04,-24 -4.61,-39.1 -6.62,-17.8 7.06,-36.9 10.59,-55.3 l -6.91,0 z"
                   style="fill:#353d42;fill-opacity:1;fill-rule:evenodd"
                   sodipodi:nodetypes="ccccccccccccccccccccccccccccccscc"
                   id="path3595"
                   inkscape:connector-curvature="0" />
                <path
                   d="m 958.84,1357.5 c -14.38,31.1 -30.3,60.5 -42.61,92.4 -10.2,26.5 -16.79,55.4 -24.92,82.6 8.84,-27.1 16.26,-54.8 26.51,-81.3 12.26,-31.8 27.35,-62.5 41.02,-93.7 z"
                   style="fill:#353d42;fill-opacity:1;fill-rule:evenodd"
                   sodipodi:nodetypes="cscsc"
                   id="path3139"
                   inkscape:connector-curvature="0" />
                <path
                   d="m 937.5,1359.4 -18.88,44.3 5.38,-8 0,12.2 8.5,-11 3.75,15.3 4.75,-10.3 7.75,7.5 9.25,-27 5,6.8 4.25,-9.4 4.75,0.6 -9.5,-32.5 -25,11.5 z"
                   style="fill:#353d42;fill-opacity:1;fill-rule:evenodd"
                   sodipodi:nodetypes="cccccccccccccc"
                   id="path3141"
                   inkscape:connector-curvature="0" />
                <path
                   d="m 980.63,1288.9 3.26,9.1 c -0.87,1.3 -1.74,2.6 -2.61,3.9 3.11,11.9 11.29,23.9 16.93,35.8 -5.86,-9.7 -11.72,-19.5 -17.58,-29.3 2.91,14.9 10.42,26.9 15.63,40.4 -5.21,-8 -11.8,-14.5 -15.63,-24.1 2.07,17.8 7.82,34.7 11.72,52.1 -5.82,-8.8 -13.02,-15.2 -19.53,-22.8 6.39,13.3 7.25,25.2 14.32,37.8 -6.53,-7.1 -13.07,-15.4 -18.23,-25.4 3.91,11.5 6.89,23.7 11.72,34.5 -6.33,-10.6 -12.21,-21.4 -16.93,-34.5 2.61,13.9 4.29,27.8 7.82,41.6 -5.92,-12.7 -9.99,-26.9 -14.98,-40.3 3.96,15.8 7,31.4 9.12,47.5 -4.31,-13.7 -9.07,-25.6 -14.98,-38.4 2.68,14.7 2.6,29.9 3.91,44.9 -3.04,-9.5 -6.08,-19.1 -9.12,-28.6 -0.43,11.3 0.51,22.8 -1.3,33.8 -1.46,-10.2 -4.98,-17.9 -7.82,-28 -1.25,9 -3.19,17.2 -6.51,25.4 0.06,-9.1 -0.81,-17.8 -2.6,-26.7 -1.02,6.8 -4.34,11.7 -6.51,17.6 1.73,-7.4 2.09,-14.3 5.21,-22.1 -5.31,4.1 -7.38,9.5 -11.07,14.3 -1.31,-4.3 -2.61,-11.8 -3.91,-16.9 2.82,-5.9 4.72,-10.1 8.46,-17.6 -3.47,4.3 -6.48,9.6 -10.41,13 2.6,-9.8 4.05,-19.1 7.81,-29.3 -5.9,4.1 -9.5,11.4 -15.63,15 3.64,-9.9 7.74,-17.2 13.68,-25.4 -4.54,3.7 -9.53,6.3 -14.98,7.8 3.62,-6.1 8.17,-11.7 14.33,-17.6 l -18.24,11.7 c 4.36,-6.3 6.64,-10.2 12.37,-14.3 -5.42,2 -10.85,3.9 -16.27,5.9 10.59,-11.6 26.39,-28.3 46.52,-39.8 9.39,-5.4 31.17,-9.3 42.03,-11 z"
                   style="fill:#353d42;fill-opacity:1;fill-rule:evenodd"
                   sodipodi:nodetypes="cccccccccccccccccccccccccccccccccccccsc"
                   id="path3573"
                   inkscape:connector-curvature="0" />
                <path
                   d="m 1031.8,1315 c 20.6,14.2 47.7,22.1 63.7,39.6 26.6,28.9 48,72.9 54.8,107.2 3.7,18.9 5.5,39 4.5,58.6 -2.5,-2.4 -2.7,-9.6 -6.4,-16.9 -1.9,7.2 -6.5,12.5 -9.2,13.9 -8.7,-16.8 -15.7,-33.6 -20.5,-52.7 0.6,-20.7 -4.4,-42.1 -6.5,-63.2 -5.1,7.1 -6.5,15.7 -9.8,23.5 -3.4,-11 -3.7,-17.5 -1.3,-29.3 -4.3,8.8 -11,16.4 -18.6,21.8 -0.2,-9.2 -2.1,-16.8 -0.6,-27.7 -3.5,3.3 -6.2,4.9 -11.4,6.2 -3.5,-14.6 -5,-28.1 -3.6,-42.3 -3.1,0.5 -6.3,1.1 -9.4,1.6 -5.3,-13.8 -14.2,-28.3 -25.7,-40.3 z"
                   style="fill:#353d42;fill-opacity:1;fill-rule:evenodd"
                   sodipodi:nodetypes="cssccccccccccccc"
                   id="path3585"
                   inkscape:connector-curvature="0" />
                <path
                   d="m 1261.4,1653.5 c -39.9,-34.3 -82.6,-71.3 -121.4,-100.9 -28,-21.3 -50.2,-51.8 -71.8,-80.5 25.3,27.6 46.8,54.5 74.6,76.7 45,35.7 101.7,78 149.6,119.1 45.8,39.4 94.5,78.9 135.5,123.1 39.1,42.3 70.4,85.7 91.1,139.3 -26.7,-59.8 -67.9,-101.9 -112.1,-147.3 -45.2,-46.4 -96.4,-87 -145.5,-129.5"
                   style="fill:#353d42;fill-opacity:1;fill-rule:evenodd"
                   sodipodi:nodetypes="cscsscscss"
                   id="path4081"
                   inkscape:connector-curvature="0" />
                <path
                   d="m 1013.1,1337.4 c 19.1,45 60.4,105.6 77,151.4 9.8,27.3 14.7,56.2 18.2,85 -2.8,3.8 -4.9,6.7 -8.1,10.1 -0.7,3.6 -1,7.4 -0.7,10.3 -3.2,2.7 -7.8,4.5 -9.4,6 3.7,4.6 4.8,11.2 5.7,16.8 -4.3,1.6 -8.3,3.1 -12.4,7.4 -1.5,5.8 -6.1,9.8 -10.1,13.4 -0.6,-5.9 -4.7,-10.9 -7.4,-14.3 -2,1.8 -5.1,3.3 -8.7,3.2 -0.4,-5.4 -5.4,-13.5 -7,-17.9 -4,-0.9 -6.2,-1.7 -10.5,-4.2 0.3,-8.4 0,-16 -2.3,-23.9 -4.3,-1 -7.1,-0.6 -12,0.4 2,-6.3 4.7,-12.9 8.7,-18.4 l -12.9,-0.9 c 0.3,-8.5 -1,-16.4 1,-25.3 -3.4,-3 -6.6,-4.4 -11.5,-8.3 3.7,-5.2 4.9,-8.8 5,-12.9 -4.4,-7.1 -8.9,-14.1 -13.3,-21.2 7.6,-9 8.3,-21.2 8.5,-32.2 2.6,-6.5 5.4,-14.3 10.1,-20 -2,-8.8 -5.3,-13.3 -8.8,-21.4 3.9,-19 3.8,-58.2 -4.4,-80.8 l 5.3,-2.3 z"
                   style="fill:#353d42;fill-opacity:1;fill-rule:evenodd"
                   sodipodi:nodetypes="cscccccccccccccccccccccccc"
                   id="path3599"
                   inkscape:connector-curvature="0" />
                <path
                   d="m 1021.1,1360.6 c 16.2,27.2 33.1,55.2 43.8,84.5 13.1,36.2 20.7,74.1 27.6,112.1 -8.2,-38.5 -16.5,-76.2 -29.7,-112.4 -10.7,-29.3 -26.8,-56.1 -41.7,-84.2 z"
                   style="fill:#353d42;fill-opacity:1;fill-rule:evenodd"
                   sodipodi:nodetypes="cscsc"
                   id="path3143"
                   inkscape:connector-curvature="0" />
                <path
                   d="m 1015.1,1343 c 9.4,20.5 21,40.3 31.2,59.2 8.5,15.9 17.4,31.8 25.9,47.7 -2.6,-0.4 -5,-1.3 -7.6,-3.2 -1.1,5.2 -2.2,9.3 -5.8,13 -5.7,-3.7 -10.5,-6.1 -14,-13 -3.3,-6.6 -0.2,-21.9 -1.4,-33.1 -5.4,-2.4 -8.2,-4.3 -11.2,-9.2 0.7,-5.8 0.4,-11.9 -0.4,-17.8 -5.6,-5.6 -10.9,-9.6 -17.4,-13.3 -0.8,-11.4 -2.8,-22.7 -6.1,-33.6 l 6.8,3.3 z"
                   style="fill:#353d42;fill-opacity:1;fill-rule:evenodd"
                   sodipodi:nodetypes="cscccscccccc"
                   id="path10359"
                   inkscape:connector-curvature="0" />
                <path
                   d="m 1013.8,1303.2 c 21.5,-0.9 61.9,-3.8 82.8,-0.1 54,9.6 81.3,19.4 127,47.9 21.4,13.3 49.5,46.1 61.1,68.1 -2.3,-0.9 -5,-4.6 -7.8,-6.8 4.4,7.4 8.3,25.1 8.6,32 -4.3,-4.2 -7.3,-5 -11.8,-5.7 0.6,8.1 -0.9,14.8 -4,21.5 l -16.2,-30.6 c 1.1,9.6 0.8,18.1 -1.3,26.1 -7.9,-21.1 -19.4,-38 -23.5,-63.2 0,13.5 -2.8,18.2 -5.2,27.4 -3.7,-6.1 -6.1,-13.9 -6.5,-20.9 -6.9,-0.6 -12.8,-3 -20.8,-9.1 -2.3,3.3 -5.6,5.7 -9.2,7.8 -4.7,-9.1 -11.7,-17.6 -18.8,-25.4 -2.4,4.9 -3.4,8.9 -4.6,13.7 -3.5,-6.1 -6.9,-12.1 -10.4,-18.2 -4.6,0.6 -9.1,1.3 -13.7,1.9 -0.2,-6.7 -0.4,-13.4 -0.6,-20.2 -5.1,5.4 -10.4,8.7 -17,10.5 -5.6,-9.3 -13.5,-19.1 -21.5,-26.1 -2.6,2.8 -5.2,5.7 -7.8,8.5 -2.9,-9 -3.7,-18.1 -3.2,-27.4 -8,2.6 -13.1,5.1 -20.1,9.5 -8.1,-3.2 -38.6,-13.7 -51.5,-16.1 l -4,-5.1 z"
                   style="fill:#353d42;fill-opacity:1;fill-rule:evenodd"
                   sodipodi:nodetypes="csscccccccccccccccccccccccc"
                   id="path3603"
                   inkscape:connector-curvature="0" />
                <path
                   d="m 1026.7,1317.8 c 46.7,24.1 105.7,49 149.9,76.6 18.9,11.7 34,29.5 49.5,45.6 10.9,11.2 20,24.3 30,36.4 -4.1,4.5 -8.7,6.5 -13.1,7.8 l -3.9,-3.9 c -2.1,2.7 -3.5,3.3 -7.4,4.5 -1.9,-3.3 -3.7,-6.5 -5.6,-9.7 -0.5,4.2 -1,6.3 -1.8,9.8 -3.6,1.4 -9.7,1.2 -14.1,-0.3 -0.1,-7.6 -0.8,-15.1 -2.2,-22.5 -0.5,7.8 -0.6,14.4 -3.2,21 -4.1,-0.6 -13.2,-4.4 -17,-6.5 -0.4,-8.4 1.1,-15.2 -0.9,-22.8 -5.8,0.1 -9.3,0 -16.3,-1.2 -2.5,-5 -3.4,-22.2 -3.1,-29.6 -2.4,5.3 -4,10.4 -4.5,16.3 -17,-14.1 -25.8,-25.5 -31.3,-37.8 -6.5,-3.6 -11.2,-3.5 -18.2,-3.9 -22.5,-25.8 -53.7,-54.7 -86.8,-79.8 z"
                   style="fill:#353d42;fill-opacity:1;fill-rule:evenodd"
                   sodipodi:nodetypes="cssccccccccccccccccc"
                   id="path3607"
                   inkscape:connector-curvature="0" />
                <path
                   d="m 1024.9,1305.2 c 35.8,7.1 72.4,14.5 106.1,28 34.1,13.6 68.8,30.8 97.1,53.4 20.5,16.3 37.8,41.2 49.5,63.1 -1.8,5.9 -3.5,11.7 -5.3,17.6 -4.6,-0.3 -8.9,-1.2 -13,-4.6 -5.4,0.5 -10.8,0.9 -16.3,1.3 -5.9,-10.5 -8.4,-26.6 -3.9,-37.1 -2.8,4.8 -9.6,6.8 -13,7.8 -1.7,-5.2 -3.5,-10.4 -5.2,-15.6 -3.8,1.2 -9.2,0.9 -14.3,-1.9 -1.9,-6.6 -7.5,-12.9 -13,-17 -2.9,1.3 -5.7,2.6 -8.5,3.9 -47.3,-36.3 -99.4,-66.9 -158.9,-91.8 -0.4,-2.4 -0.9,-4.7 -1.3,-7.1 z"
                   style="fill:#353d42;fill-opacity:1;fill-rule:evenodd"
                   sodipodi:nodetypes="csscccccccccccc"
                   id="path3605"
                   inkscape:connector-curvature="0" />
                <path
                   d="m 1009.3,1298 c 7.5,3.9 19,11.8 25.8,19.8 14.7,17 31.4,42 38.6,65.2 7.6,24.3 10.8,40.5 13.4,65.7 -6.8,-5.8 -11.1,-12 -15,-20.8 -1.4,6.1 -3.6,8.7 -6.2,12.7 -3.2,-2.4 -8.6,-7.5 -8.6,-14.7 0,-7.7 3.7,-15.9 3.3,-23.8 -5.9,-2 -9.1,-4.3 -12.9,-8.8 1.6,-4.9 3.4,-9.3 4.8,-16 -4.5,-5.8 -10.4,-9.3 -16.9,-11.9 -1.4,-3.5 -2.9,-7 -4.3,-10.4 -0.6,-5 0.7,-9.9 1,-14.9 -1.3,4.8 -2.7,9.4 -4.1,14.4 -8.3,-4.2 -17,-8.1 -18.6,-12.3 -2.3,1.5 -10.95,2.8 -13.34,4.3 -0.11,-9.9 8.04,-26.4 6.84,-41.8 l 6.2,-6.7 z"
                   style="fill:#353d42;fill-opacity:1;fill-rule:evenodd"
                   sodipodi:nodetypes="csscccsccccccccccc"
                   id="path3583"
                   inkscape:connector-curvature="0" />
                <path
                   d="m 1545.6,1913 c -39,-52.6 -83.5,-106 -130.1,-154.2 -33.9,-35.2 -174.6,-147.6 -216.7,-178.3 39.9,33.4 182,149.7 217.4,186.4 45.1,46.7 87.5,95.5 129.4,146.1 z"
                   style="fill:#353d42;fill-opacity:1;fill-rule:evenodd"
                   sodipodi:nodetypes="cscsc"
                   id="path4083"
                   inkscape:connector-curvature="0" />
                <path
                   d="m 1008.3,1273.7 c 13.8,-27.7 29.9,-55.3 49.9,-80.3 -10.1,17.1 -19.6,29.5 -28.7,46.3 -5.5,10.3 -14.1,24.5 -21.2,34 z"
                   style="fill:#353d42;fill-opacity:1;fill-rule:evenodd"
                   sodipodi:nodetypes="ccsc"
                   id="path3205"
                   inkscape:connector-curvature="0" />
                <path
                   d="m 997,1279.2 c -16.25,-14.5 -31.62,-30.2 -48.75,-43.5 -16.62,-13 -35,-23.7 -52.5,-35.5 16.5,11.9 33.46,23.2 49.5,35.7 17.71,13.8 34.5,28.9 51.75,43.3 z"
                   style="fill:#353d42;fill-opacity:1;fill-rule:evenodd"
                   sodipodi:nodetypes="cscsc"
                   id="path4090"
                   inkscape:connector-curvature="0" />
                <path
                   d="m 967,1304.4 c -4.5,6.2 -10.2,11.8 -13.5,18.5 -3.53,7.3 -4.67,15.7 -7,23.5 1.83,-8.6 1.76,-18.3 5.5,-26 3.09,-6.3 10,-10.6 15,-16 z"
                   style="fill:#353d42;fill-opacity:1;fill-rule:evenodd"
                   sodipodi:nodetypes="cscsc"
                   id="path3804"
                   inkscape:connector-curvature="0" />
                <path
                   d="m 997,1300.4 -7.5,-2 -10,2.5 6.5,-6 2.5,-6 5.5,5.5 3,6 z"
                   style="fill:#353d42;fill-opacity:1;fill-rule:evenodd"
                   id="path3814"
                   inkscape:connector-curvature="0" />
                <path
                   d="m 1000,1301.4 5.5,6 -3,6.5 10.5,0.5 1,-12 -14,-1 z"
                   style="fill:#353d42;fill-opacity:1;fill-rule:evenodd"
                   id="path3816"
                   inkscape:connector-curvature="0" />
                <path
                   d="m 995,1306.9 -3,13.5 4,-1.5 1.5,6 10.5,2.5 -4.5,-10.5 -8.5,-10 z"
                   style="fill:#353d42;fill-opacity:1;fill-rule:evenodd"
                   id="path3818"
                   inkscape:connector-curvature="0" />
                <path
                   d="m 990,1302.9 -10,-4 1.5,3.5 -6.5,1 -3,7 5.5,-5.5 0,6.5 5,-5 7.5,-3.5 z"
                   style="fill:#353d42;fill-opacity:1;fill-rule:evenodd"
                   id="path3820"
                   inkscape:connector-curvature="0" />
                <path
                   d="m 995.96,1295.9 -7.07,-12 -8.84,-8.5 3.54,-2.1 0.35,-11.3 -3.89,-3.9 5.3,-8.5 11.32,12.1 3.53,0 5.3,7.7 -3.9,11.3 -2.1,14.9 -3.54,0.3 z"
                   style="fill:#353d42;fill-opacity:1;fill-rule:evenodd"
                   id="path3301"
                   inkscape:connector-curvature="0" />
                <path
                   d="m 998.79,1297.7 -3.89,-12 3.89,-8.5 5.31,3.9 -4.25,6.7 2.15,12 -3.21,-2.1 z"
                   style="fill:#353d42;fill-opacity:1;fill-rule:evenodd"
                   id="path3303"
                   inkscape:connector-curvature="0" />
                <path
                   d="m 995.5,1301.4 10.5,-8.5 2,-7 -8.5,5.5 -4,-1 0,11 z"
                   style="fill:#353d42;fill-opacity:1;fill-rule:evenodd"
                   id="path3822"
                   inkscape:connector-curvature="0" />
                <path
                   d="m 992.5,1303.4 -5,4.5 2.5,9 7.5,-5 0,-9.5 -5,1 z"
                   style="fill:#353d42;fill-opacity:1;fill-rule:evenodd"
                   id="path3824"
                   inkscape:connector-curvature="0" />
                <path
                   d="m 1004.8,1298.8 6.4,-7.8 6.3,0 1.4,-2.5 7.5,3.2 -5,6.4 -18.4,4.6 1.8,-3.9 z"
                   style="fill:#353d42;fill-opacity:1;fill-rule:evenodd"
                   id="path3305"
                   inkscape:connector-curvature="0" />
                <path
                   d="m 998.08,1299.5 5.32,-1.1 0.3,5.7 -1,5.3 -4.27,-4.6 -2.12,-0.7 1.77,-4.6 z"
                   style="fill:#353d42;fill-opacity:1;fill-rule:evenodd"
                   id="path5087"
                   inkscape:connector-curvature="0" />
              </g>
              <g
                 style="display:block;fill:#353d42;fill-opacity:1"
                 transform="matrix(1.7187119,0,0,1.8025314,-151.86101,-2312.2015)"
                 id="g18605">
                <g
                   style="display:block;fill:#353d42;fill-opacity:1"
                   id="g16748"
                   transform="translate(31.42857,17.1429)">
                  <path
                     d="m 645.08571,2035.5571 c 2.8,-7 3.4,-12.9 2.4,-17 -2.8,-11 -4.8,-20.5 -12,-28 -4.2,-4.5 -12.9,-6.6 -17.7,-6.2 -2.7,2.2 -5.72,3.1 -8.57,3.4 0.63,3.4 2.79,5.4 5.47,6.5 -0.91,2.1 -2.17,3.4 -3.76,4.8 0.23,3.5 0.46,7.1 0.68,10.6 1.6,0.8 3.18,1.6 4.78,2.4 -0.9,1.1 -1.8,2.2 -2.73,3.4 3.33,1.7 6.63,3.4 9.93,5.1 l 0,8.2 c 5.2,3.4 12.8,6.5 18.1,9.9 l 3.4,-3.1 z"
                     style="fill:#353d42;fill-opacity:1;fill-rule:evenodd"
                     sodipodi:nodetypes="cssccccccccccc"
                     id="path20836"
                     inkscape:connector-curvature="0" />
                  <path
                     d="m 642.98571,2034.9571 c -24.7,-0.3 -128.62,7.9 -142.72,13.9 -4.54,-4.8 -6.88,-2.2 -15.86,0.7 -3.69,-1.7 -6.21,-6.9 -7.18,-10.9 1.99,-2.6 2.98,-4.9 4.21,-6.6 -2.01,-1.9 -3.05,-1.5 -5.47,-2.1 2.96,-13 19.42,-27.6 25.45,-29.3 0.9,1.8 1.27,2.6 2.46,3.7 0.03,-2.9 2.96,-4.3 6.17,-6.9 5.78,-0.4 23.45,-4 28.47,-4.2 27.26,-1.1 55.87,-1.2 77.87,15 12.1,8.9 18.2,15 26.6,26.7 z"
                     style="fill:#353d42;fill-opacity:1;fill-rule:evenodd"
                     sodipodi:nodetypes="cccccccccssc"
                     id="path3352"
                     inkscape:connector-curvature="0" />
                  <path
                     d="m 499.58571,2056.0571 c 9.1,-14 31.98,-21 67.79,-25.5 35.81,-4.5 70.21,7.4 70.21,7.4 l -6.8,3.8 c -26.01,-0.2 -50.3,5.8 -71.43,15 -3.69,-0.1 -7.15,0.3 -9.65,0.6 -0.48,2.4 -1.46,3.8 -3.16,5.5 -6.16,1.9 -16.51,7.1 -22.37,11 -4.57,-1.9 -9.38,-4.4 -12.98,-7.5 -2.87,1 -5.77,3.8 -7.52,7.5 -2.45,-5.4 -3.51,-11.1 -4.09,-17.8 z"
                     style="fill:#353d42;fill-opacity:1;fill-rule:evenodd"
                     sodipodi:nodetypes="csccccccccc"
                     id="path6858"
                     inkscape:connector-curvature="0" />
                  <path
                     d="m 646.48571,2061.5571 c 11.7,42.5 26.2,71.9 38,112.1 5.7,19.6 8.7,43.6 6.8,63.2 -1.5,15.5 -5.9,34 -12.7,48.8 -4.3,-3.1 -9.1,-5.6 -14.4,-6.2 -4.3,4 -9.1,6 -14.3,6.8 -2.4,-6.7 -4.4,-15.4 -3.2,-23.1 2.6,-1.8 5.3,-5.9 6.2,-11 -3,-2.3 -5.6,-9.7 -5.5,-15.7 4,-5.6 5.1,-12.2 6.2,-20.5 -2.5,-12.1 -5.5,-34.4 -4.9,-49.7 0.6,-16.1 -3.8,-81.9 -7.7,-106.8 l 5.5,2.1 z"
                     style="fill:#353d42;fill-opacity:1;fill-rule:evenodd"
                     sodipodi:nodetypes="csscccccccscc"
                     id="path3354"
                     inkscape:connector-curvature="0" />
                  <path
                     d="m 643.68571,2059.4571 c 8.2,29.2 17.4,60 23.5,89.6 4.8,23.8 10.7,45.1 18.2,66.9 4.4,3.3 5.9,6.4 7.5,9.5 10.5,2.2 18.1,5.8 30.1,13.7 1.8,-5.7 3.6,-10.4 5.4,-17.1 -6.6,-17.3 -12.9,-34.7 -19.8,-51.9 -7.2,-17.9 -14,-36 -22.5,-53.3 -7.7,-15.5 -24.1,-39.1 -34.2,-52.8 l -8.2,-4.6 z"
                     style="fill:#353d42;fill-opacity:1;fill-rule:evenodd"
                     sodipodi:nodetypes="csccccsscc"
                     id="path3362"
                     inkscape:connector-curvature="0" />
                  <path
                     d="m 655.28571,2060.8571 c 26.7,16 54,31.8 78,50.7 15.6,12.3 32.6,30 43.3,46.8 13.3,20.8 21.9,40.7 30.4,63 -2.4,1.7 -5.6,1.8 -8.2,1.4 0.9,2.3 1.8,4.6 2.7,6.8 -6.2,8.6 -9.8,19.1 -13,29.4 -2.9,0.8 -6.2,0.6 -8.8,-0.7 -2.6,2.4 -3.6,5.2 -4.1,8.2 -2.8,-2.2 -3.9,-5.1 -4.8,-8.2 -3.1,0.8 -4.9,2 -6.8,4.8 -3.3,-8 -4.6,-15.8 -4.8,-23.9 -2.4,1 -5.2,1.4 -7.5,0 0,-10 -3.1,-16.5 1.3,-25.3 -14.5,-16.5 -18.5,-36.9 -26.6,-56.7 -11.1,-12.3 -21.3,-20.5 -30.8,-34.1 -13,-18.8 -25.7,-38.4 -39.6,-56 l -0.7,-6.2 z"
                     style="fill:#353d42;fill-opacity:1;fill-rule:evenodd"
                     sodipodi:nodetypes="cssccccccccccccscc"
                     id="path3358"
                     inkscape:connector-curvature="0" />
                  <path
                     d="m 1083.2857,2387.9571 c 15.4,1.5 31.3,1.7 46.2,1.3 -52,-34.6 -89.8,-75.6 -147.79999,-103.6 -60.6,-29.3 -154.6,-74.2 -209,-103.5 -18.9,-10.2 -83.1,-62.3 -95.9,-83 -4.8,-7.8 -19.2,-32 -7,-38.8 -12.9,-12.5 -22.1,-20.4 -33.2,-30.6 7,22.6 18.4,56.2 31.1,75.2 16.2,24.2 32.2,35.5 55.5,54.4 24.2,19.6 49.7,38.2 76.8,53.4 59.5,33.4 128.5,67.1 183,92.5 21.29999,9.8 88.29999,60.8 100.29999,82.7 z"
                     style="fill:#353d42;fill-opacity:1;fill-rule:evenodd"
                     sodipodi:nodetypes="ccsssccssssc"
                     id="path3569"
                     inkscape:connector-curvature="0" />
                  <path
                     d="m 1076.9857,2373.2571 c -22.2,-19.7 -73.7,-59.1 -87.99999,-66.6 -37.8,-20 -134.2,-61 -204.5,-104.6 -19.2,-11.8 -37.8,-25.1 -55.8,-38.7 -14.4,-12.5 -28.8,-24.9 -43.2,-37.4 -14.1,-12.8 -26.6,-35 -30.4,-46.7 2,-0.7 3.9,-1.4 5.9,-2 10.5,13.9 21,27.9 31.4,41.9 13,13.9 25.9,27.7 38.9,41.5 17.2,14.8 36.6,28.2 56.6,39.3 72.6,40.1 158.6,80.4 207.6,106.6 26.29999,14 63.19999,43.2 81.49999,66.7 z"
                     style="fill:#353d42;fill-opacity:1;fill-rule:evenodd"
                     sodipodi:nodetypes="cssccccccssc"
                     id="path6709"
                     inkscape:connector-curvature="0" />
                  <path
                     d="m 647.98571,2034.7571 c 17.2,-4.3 34.2,-10.6 51.7,-13 16.1,-2.3 32.9,-2 49.2,-1 11.6,0.7 23.9,2.3 34.3,6.3 l 15,12.1 -154.6,12.5 4.4,-16.9 z"
                     style="fill:#353d42;fill-opacity:1;fill-rule:evenodd"
                     sodipodi:nodetypes="csscccc"
                     id="path20834"
                     inkscape:connector-curvature="0" />
                  <path
                     d="m 628.88571,2022.6571 c 2.1,2.7 4.4,4.2 9.4,7 3.1,-1.7 6.7,-5.3 17.5,-2 -0.4,2.7 -0.9,4.2 0.6,6.6 2.5,4.1 3.2,6 5.6,10.2 5.3,4.7 10.6,9.5 15.9,14.2 0.9,6.2 0.1,12 -2.9,16.7 -5.5,1.5 -11.1,3 -16.6,4.6 -5.3,1.6 -11.2,6.6 -15.7,12 l -21.3,-6 c -7.32,-7.8 -14.65,-15.6 -21.97,-23.4 8.37,-9.1 12.39,-18.5 12.8,-29.5 4.07,-5.1 8.97,-8.7 16.67,-10.4 z"
                     style="fill:#353d42;fill-opacity:1;fill-rule:evenodd"
                     sodipodi:nodetypes="cccsccccccccc"
                     id="path17338"
                     inkscape:connector-curvature="0" />
                  <path
                     d="m 632.28571,2036.2571 c -13.6,1.2 -24.84,2.8 -38.88,3.6 -13.73,0.8 -30.88,1.6 -44.47,1.2 -1.86,0.4 -6.1,1.8 -7.88,2.4 0.56,1.2 1.99,2 1.83,3.1 -2.35,-1.2 -3.55,-1.1 -4.5,-1.7 -3.14,1.6 -5.16,7.2 -4.53,8.2 0.75,-0.7 2.02,-1.8 3.97,-2.1 -1.88,0.8 -3.38,2.3 -4.23,3.8 1.56,1.8 10.15,2.2 12.44,5.1 1.42,-1.1 1.9,-2.5 1.69,-4.1 1.09,1.8 1.22,2.8 0.97,4.6 4.35,0.5 8.52,0.4 13.04,-0.2 17.24,-7.5 48.22,-17.3 65.25,-20.3 l 5.3,-3.6 z"
                     style="fill:#353d42;fill-opacity:1;fill-rule:evenodd"
                     sodipodi:nodetypes="csccccccccccccc"
                     id="path3364"
                     inkscape:connector-curvature="0" />
                  <path
                     d="m 627.98571,2038.3571 c -25.03,6.3 -48.02,11.3 -73.76,19.4 -28.68,9.1 -49.34,18.3 -74.51,38 -16.13,12.7 -34.16,34.9 -40.93,54.6 3.98,0.9 16.68,-2.6 21.01,-5.1 -0.35,-2.4 -0.35,-4.7 0.17,-7.9 2.67,3 7.4,2.5 11.61,1.4 5.58,-3.7 12.52,-7.1 19.81,-8.9 8.08,0.7 15.31,0.1 23.22,-1.4 3.93,-5.5 9.4,-9.5 16.4,-12.9 11.33,-2.6 25.73,-10.8 36.89,-14.9 1.36,-6.4 11.61,-17.5 19.12,-23.4 6.26,2.7 14.58,1.7 21.86,0 1.08,-11.9 9.71,-26.5 19.11,-38.9 z"
                     style="fill:#353d42;fill-opacity:1;fill-rule:evenodd"
                     sodipodi:nodetypes="cssccccccccccc"
                     id="path3338"
                     inkscape:connector-curvature="0" />
                  <path
                     d="m 629.38571,2062.2571 c -6.2,29.8 -12.5,71.3 -15,107.2 -1.81,24.7 0.5,51 4.9,75 2.9,15.4 8.4,28.6 16.9,43.2 3,-2.5 5.9,-5 8.9,-7.5 1.6,2.5 3.4,3.7 5.5,4.8 1.1,-4.2 2.6,-6.4 5.4,-8.9 0.2,-14 -0.9,-25 -5.6,-29.3 2.8,-1.5 2.2,-3.1 4.3,-4.9 -3.3,-6.1 1.5,-36.3 1.3,-48.5 -2.9,-4.5 -5.9,-9.1 -8.9,-13.6 2.8,0.3 7,-0.9 8.9,-3.4 0.3,-6.4 -0.4,-12.3 -2,-18.5 -1.8,-1.4 -3.7,-2.7 -5.5,-4.1 4.5,-7.7 6,-15.9 6.2,-25.3 -9.1,-24.4 -13.7,-35.9 -18.4,-66.6 l -6.9,0.4 z"
                     style="fill:#353d42;fill-opacity:1;fill-rule:evenodd"
                     sodipodi:nodetypes="csscccccccccccccc"
                     id="path3356"
                     inkscape:connector-curvature="0" />
                  <path
                     d="m 610.92571,2082.7571 c -16.19,23.6 -31.72,47.8 -46.45,72.4 -11.46,19.1 -22.07,38.8 -32.11,58.7 -2.94,5.9 -5.27,11.4 -6.83,18.5 2.05,-0.7 4.19,-0.7 6.15,-2.1 -1.82,6.2 -2.62,12.9 -5.46,18.5 0.82,7.7 4.12,14.2 4.78,21.1 4.04,3.3 9.28,4.5 13.66,4.8 5.07,-3.6 12.52,-6.8 15.71,-13.6 3.47,-7.5 8.14,-14.5 12.98,-21.2 -2.11,-5.3 -2.85,-10.1 -2.73,-15.7 1.56,2.9 4.32,6.9 7.51,7.5 2.73,-5.5 3.84,-11.6 8.2,-16.4 7.14,-17.3 13.07,-35 17.08,-53.3 4.62,-4.8 6.34,-11.2 12.17,-18.2 2.9,-12.1 7.2,-28.6 12.4,-37.8 -1.2,-15.5 -0.5,-29.8 2.1,-46.5 -6.4,7.8 -13.5,15 -19.16,23.3 z"
                     style="fill:#353d42;fill-opacity:1;fill-rule:evenodd"
                     sodipodi:nodetypes="csscccccsccccccccs"
                     id="path3346"
                     inkscape:connector-curvature="0" />
                  <path
                     d="m 629.78571,2043.5571 c -22.59,19.6 -51.32,44 -67.36,59.7 -12.59,12.3 -45.86,63.9 -51.23,75.8 -5.56,12.3 -13.66,53 -12.98,60.8 4.35,0.8 7.74,3.6 11.61,6.1 5.09,-3.8 8.74,-9.5 10.93,-14.3 -2.37,-4.3 -2.81,-8.7 -2.05,-13 5.24,0.6 12.65,-2.6 17.89,-5.1 2.16,-8.6 9.23,-23.4 11.32,-32.6 4.78,-2.3 12.46,-1.7 17.24,-4 2.23,-9.1 5.17,-18.2 9.57,-26.6 11.8,-4.4 18.78,-19 25.27,-19.1 1.4,-9 7.15,-16.9 14.39,-23.9 -1.97,-13.2 2.4,-38.5 15.4,-63.8 z"
                     style="fill:#353d42;fill-opacity:1;fill-rule:evenodd"
                     sodipodi:nodetypes="cssccccccccccc"
                     id="path3344"
                     inkscape:connector-curvature="0" />
                  <path
                     d="m 630.08571,2052.6571 c -34.87,19.6 -41.45,15.3 -73.64,37.6 -6.98,4.8 -39.56,36.2 -43.89,43.7 3.65,-2 7.97,-2.6 10.93,-6.1 0.52,2.6 2.22,4.5 4.1,5.4 3.65,-4.6 7.97,-7.3 12.98,-8.9 6.38,0.6 14.29,-2 21.18,-4.1 20.89,-23 45.54,-45 68.34,-67.6 z"
                     style="fill:#353d42;fill-opacity:1;fill-rule:evenodd"
                     sodipodi:nodetypes="cscccccc"
                     id="path3350"
                     inkscape:connector-curvature="0" />
                  <path
                     d="m 654.68571,2053.3571 c 22.7,5.2 47,6.7 68.3,15.7 25.9,11 50.6,27.3 73.1,44.4 12.8,9.8 21.8,24.1 32.7,36.2 -0.5,5.7 0.3,11.6 1.4,17.1 -3.2,1 -6.4,0.8 -9.5,0 -0.2,3.8 0.6,8 2,10.9 -2,3.3 -5.3,4.8 -8.2,6.2 1,5.2 -1.1,8.8 -0.7,12.9 -2.3,1.6 -4.6,1.9 -7.5,2.8 -1.1,-3.3 -0.8,-7 -2.7,-10.3 -1.8,-0.4 -3.7,-0.9 -5.5,-1.3 -5.3,-8.5 -5.6,-16.7 -13,-26 -3.2,-0.4 -6.3,-0.9 -9.5,-1.4 -4.8,-5.8 -9.3,-12 -11.6,-19.1 -5.9,-1.2 -11.4,-1 -17.1,0 -3.4,-8.2 -6.9,-16.4 -10.3,-24.6 -4.2,2 -6.5,2.2 -10.9,3 -6.8,-7.7 -15.7,-20.5 -19.8,-28.9 -6.6,-3.3 -13.5,-3.5 -19.1,-3.4 -8.6,-15.3 -21.4,-22.8 -32.1,-34.2 z"
                     style="fill:#353d42;fill-opacity:1;fill-rule:evenodd"
                     sodipodi:nodetypes="csscccccccccccccccccc"
                     id="path3342"
                     inkscape:connector-curvature="0" />
                  <path
                     d="m 647.08571,2039.0571 c 26,-4.6 37.3,-7 63.4,-9.8 29,-3.2 62.7,-6 90.8,-2 19.9,2.9 49,10.4 67.9,18.6 -2.6,1.1 -5.1,2.3 -7.6,3.4 2.4,4.1 3.9,9.4 4.1,14.3 -12.4,-3.3 -24.3,-4 -36.5,-3.9 -2.4,2.5 -4.8,4.9 -7.2,7.4 -4.6,-0.3 -7.8,-1.7 -10.8,-3.5 -9.2,2.9 -17.7,7.6 -24.7,12.6 -8.4,-2.6 -16.8,-5.2 -25.3,-7.8 -4.5,5.3 -9.9,9 -17.1,11.6 -2.2,-3.5 -4.4,-7 -6.6,-10.6 -14.4,3 -28.8,4.7 -44.6,3.8 -10.6,-11.3 -27.4,-21.9 -43.3,-28.1 -0.8,-2 -1.6,-4 -2.5,-6 z"
                     style="fill:#353d42;fill-opacity:1;fill-rule:evenodd"
                     sodipodi:nodetypes="cssccccccccccccc"
                     id="path3340"
                     inkscape:connector-curvature="0" />
                  <path
                     d="m 637.08571,2050.6571 -2.7,2.7 -4.5,-0.7 0.9,3.6 3.2,2.9 6.5,-2.7 -3.4,-5.8 z"
                     style="fill:#353d42;fill-opacity:1;fill-rule:evenodd"
                     id="path2598"
                     inkscape:connector-curvature="0" />
                  <path
                     d="m 644.08571,2050.2571 2.9,9.1 4.6,-2.6 -4.4,-3.4 2.9,-2.2 -6,-0.9 z"
                     style="fill:#353d42;fill-opacity:1;fill-rule:evenodd"
                     id="path2600"
                     inkscape:connector-curvature="0" />
                  <path
                     d="m 639.28571,2048.0571 4.3,3.6 -1.4,-4.8 5,0.7 -2.9,-7.2 -5,7.7 z"
                     style="fill:#353d42;fill-opacity:1;fill-rule:evenodd"
                     id="path2602"
                     inkscape:connector-curvature="0" />
                  <path
                     d="m 632.78571,2043.4571 -4.9,3.1 -6.3,-1.6 3.9,-3.7 -2.6,-2.1 8.2,0.9 1.7,3.4 z"
                     style="fill:#353d42;fill-opacity:1;fill-rule:evenodd"
                     id="path2604"
                     inkscape:connector-curvature="0" />
                  <path
                     d="m 635.18571,2038.3571 5.3,-6.7 1.9,-7.3 3.9,-2.9 2.4,7.8 3.1,1.4 -6,1.2 2.7,1.5 -8,2.4 -3.2,4.1 -2.1,-1.5 z"
                     style="fill:#353d42;fill-opacity:1;fill-rule:evenodd"
                     id="path2606"
                     inkscape:connector-curvature="0" />
                  <path
                     d="m 636.58571,2042.4571 2.9,-7.7 5.1,2.2 7,0.2 -4.1,2.7 -10.9,2.6 z"
                     style="fill:#353d42;fill-opacity:1;fill-rule:evenodd"
                     id="path2608"
                     inkscape:connector-curvature="0" />
                  <path
                     d="m 637.78571,2043.2571 -5.8,2.4 1.5,3.4 3.4,3.1 4.1,-1 -3.2,-2.4 2.9,-1.7 -2.9,-3.8 z"
                     style="fill:#353d42;fill-opacity:1;fill-rule:evenodd"
                     id="path2610"
                     inkscape:connector-curvature="0" />
                  <path
                     d="m 618.28571,2030.1571 6.5,3.6 2.2,-2.6 0.4,5.5 5.1,1.7 -0.2,-2.9 -0.8,-6.2 -6.5,-2.5 -0.9,-2.4 -5.8,5.8 z"
                     style="fill:#353d42;fill-opacity:1;fill-rule:evenodd"
                     id="path2612"
                     inkscape:connector-curvature="0" />
                  <path
                     d="m 630.58571,2034.7571 5.8,-1.9 0.7,-5.1 -3.4,-1.9 -0.5,3.8 -3.1,-2.6 0.5,7.7 z"
                     style="fill:#353d42;fill-opacity:1;fill-rule:evenodd"
                     id="path2614"
                     inkscape:connector-curvature="0" />
                  <path
                     d="m 652.98571,2053.3571 7.5,7 5.1,-1.4 -0.2,3.6 6,-1.5 -2.2,-8.2 -6.5,1.5 -4.8,-2 1.2,-1.4 -6.1,2.4 z"
                     style="fill:#353d42;fill-opacity:1;fill-rule:evenodd"
                     id="path2616"
                     inkscape:connector-curvature="0" />
                  <path
                     d="m 652.98571,2056.9571 1.5,5.8 4.1,-0.5 0,4.1 4.8,-0.2 1,-4.6 -4.4,-4.6 -7,0 z"
                     style="fill:#353d42;fill-opacity:1;fill-rule:evenodd"
                     id="path2618"
                     inkscape:connector-curvature="0" />
                  <path
                     d="m 644.28571,2062.0571 -0.2,10.9 2.9,-2 3.9,4.9 2.9,-2.9 -9.5,-10.9 z"
                     style="fill:#353d42;fill-opacity:1;fill-rule:evenodd"
                     id="path2620"
                     inkscape:connector-curvature="0" />
                  <path
                     d="m 639.48571,2060.5571 -3.8,5.1 2.6,0 -0.7,6.1 3.8,-1.7 2.7,-5.1 -4.6,-4.4 z"
                     style="fill:#353d42;fill-opacity:1;fill-rule:evenodd"
                     id="path2622"
                     inkscape:connector-curvature="0" />
                  <path
                     d="m 640.48571,2053.5571 0,6.1 3.6,0 0,3.8 6.8,2.2 0.5,-4.8 -10.9,-7.3 z"
                     style="fill:#353d42;fill-opacity:1;fill-rule:evenodd"
                     id="path2624"
                     inkscape:connector-curvature="0" />
                  <path
                     d="m 628.68571,2049.1571 -5.3,1.7 0.9,1.7 -5.3,2.2 2.2,2.6 3.1,2.7 2,-4.1 3.1,-2.2 -0.7,-4.6 z"
                     style="fill:#353d42;fill-opacity:1;fill-rule:evenodd"
                     id="path2630"
                     inkscape:connector-curvature="0" />
                  <path
                     d="m 628.58571,2049.2571 -5.3,1.7 1,1.7 -5.3,2.2 2.2,2.6 3.1,2.7 1.9,-4.1 3.2,-2.2 -0.8,-4.6 z"
                     style="fill:#353d42;fill-opacity:1"
                     id="path2632"
                     inkscape:connector-curvature="0" />
                  <path
                     d="m 630.58571,2049.4571 -3.6,6.6 1.2,0.9 0.9,6.3 5.3,0 0.3,-5.3 -2.7,-3.4 -1.4,-5.1 z"
                     style="fill:#353d42;fill-opacity:1;fill-rule:evenodd"
                     id="path2628"
                     inkscape:connector-curvature="0" />
                  <path
                     d="m 625.08571,2020.6571 c -9.8,-9.9 -29.66,-21.2 -48.48,-20.9 -27.62,0.4 -53.83,12.7 -75.57,29 21.77,-17.4 48.34,-30 75.67,-30.3 18.19,-0.2 39.18,11.4 48.38,22.2 z"
                     style="fill:#353d42;fill-opacity:1;fill-rule:evenodd"
                     sodipodi:nodetypes="cscsc"
                     id="path6333"
                     inkscape:connector-curvature="0" />
                  <path
                     d="m 662.18571,2041.7571 c 33.2,-6 68.1,-12.2 102.1,-12.4 27.7,-0.1 57.4,5.5 83.2,11.4 -25.7,-6.9 -55.2,-12.6 -82.8,-12.4 -34.1,0.2 -69.6,6.4 -102.5,13.4 z"
                     style="fill:#353d42;fill-opacity:1;fill-rule:evenodd"
                     sodipodi:nodetypes="cscsc"
                     id="path6334"
                     inkscape:connector-curvature="0" />
                  <path
                     d="m 603.92571,2046.6571 c -24.12,5.7 -54.03,13.1 -76.73,23.9 -21.84,10.4 -45.3,26.2 -56.75,40.9 12.23,-14.3 35.54,-29.7 57.52,-40.2 22.57,-10.7 52.17,-18.1 75.96,-24.6 z"
                     style="fill:#353d42;fill-opacity:1;fill-rule:evenodd"
                     sodipodi:nodetypes="cscsc"
                     id="path2920"
                     inkscape:connector-curvature="0" />
                  <path
                     d="m 611.12571,2065.5571 c -15.18,7.5 -31.01,15.7 -44.98,25.7 -9.68,6.8 -18.14,15.9 -25.96,24.7 8.42,-8.2 17.19,-16.7 26.86,-23.5 13.98,-10 29.31,-18.9 44.08,-26.9 z"
                     style="fill:#353d42;fill-opacity:1;fill-rule:evenodd"
                     sodipodi:nodetypes="cscsc"
                     id="path4163"
                     inkscape:connector-curvature="0" />
                  <path
                     d="m 748.48571,2168.5571 c 16.7,10.2 33.6,20.5 51,29.5 31.5,16.4 185.8,89.5 213.89999,107.8 24,15.7 46.2,33 68.3,50.6 -22.9,-16.8 -49.4,-38.5 -69.6,-49.8 -43.59999,-24.2 -173.99999,-86.3 -213.09999,-106.9 -17,-9 -34.5,-20.5 -50.5,-31.2 z"
                     style="fill:#353d42;fill-opacity:1;fill-rule:evenodd"
                     sodipodi:nodetypes="csscssc"
                     id="path4835"
                     inkscape:connector-curvature="0" />
                </g>
                <path
                   inkscape:connector-curvature="0"
                   id="path18560"
                   sodipodi:nodetypes="csssccccccccccccsc"
                   style="fill:#353d42;fill-opacity:1;fill-rule:evenodd"
                   d="m 606.27093,2137.1294 c 33.32728,-16.9085 62.41776,-37.5576 96.67549,-53.1431 31.6389,-14.5503 68.41471,-26.6445 102.33354,-32.4619 33.32118,-5.7645 90.44338,8.9496 105.27659,15.4654 15.0501,6.6974 30.69287,15.5509 42.82916,25.6186 -11.8207,2.5537 -23.3917,6.7918 -35.25406,7.7429 -17.73705,-7.5635 -32.76836,-18.5794 -50.71347,-26.2249 7.96266,6.0205 15.8257,12.0498 23.79718,18.1699 -15.2758,-6.9785 -29.60214,-13.4389 -41.84936,-22.4929 3.53954,8.2196 10.15814,16.0659 13.8969,24.2678 -12.48922,-6.1212 -26.26703,-10.9235 -37.55845,-18.2552 0.62053,5.8681 2.90793,11.2873 6.13596,17.1251 -5.82784,-1.1901 -12.07562,-4.8528 -15.74487,-7.7401 -5.69155,2.6127 -11.06027,6.6023 -15.37992,11.1013 -7.55017,-0.2343 -17.12898,3.8272 -25.239,2.9398 -0.35294,3.9466 1.52969,8.197 3.62285,11.4248 -33.62658,-3.3442 -66.73858,-2.0155 -99.12547,2.9634 -25.25915,3.8452 -49.1147,15.5973 -73.70307,23.4991 z" />
              </g>
              <path
                 transform="matrix(2,0,0,2,-1084.1267,-1427.4255)"
                 sodipodi:nodetypes="cccssc"
                 inkscape:connector-curvature="0"
                 id="path18702"
                 d="m 529.84072,1744.703 1111.13808,-2.2731 c -150.7688,-223.5152 -390.237,-138.3236 -554.2207,-20.6381 -133.80033,-60.0533 -164.67406,-66.0415 -248.68841,-39.7019 -29.77797,9.3358 -92.72768,52.1604 -130.94349,34.3238 -45.53102,-21.2508 -167.00874,12.6927 -177.28548,28.2893 z"
                 style="display:block;fill:#353d42;fill-opacity:1;fill-rule:evenodd;stroke:none;stroke-width:1px;stroke-linecap:butt;stroke-linejoin:miter;stroke-opacity:1" />
              <path
                 transform="matrix(2,0,0,2,-1084.1267,-1427.4255)"
                 sodipodi:nodetypes="ccccccccccccccscssccccccccssc"
                 inkscape:connector-curvature="0"
                 id="path18742"
                 d="m 1622.7601,1767.925 c -60.7143,0.6052 -125.6009,8.4701 -186.2374,-3.0272 -66.9469,-1.8 -134.1821,-5.6134 -199.7565,9.3293 -92.0915,4.8836 -184.5462,3.0405 -276.76586,3.4451 -115.27194,-3.3381 -231.70046,0.4612 -346.13273,2.3016 -46.52371,-3.521 -88.64499,40.3294 -29.46709,59.3782 60.1817,22.0813 128.88055,15.6622 192.2123,31.9322 85.88151,4.8625 171.59083,4.8058 257.42868,7.181 60.5688,1.8913 124.9339,0.9647 180.0968,23.9017 48.1785,12.7535 49.3976,48.6682 -5.0693,44.7076 -105.9972,5.2513 -212.60332,-30.2686 -317.92927,-6.9675 -47.57727,10.4493 -127.54274,6.5604 -152.90229,39.4385 42.9895,41.5469 104.43655,63.579 169.40864,63.1747 131.64532,38.6962 262.14882,38.0626 404.74252,44.9334 33.3472,1.6231 -5.7315,35.919 21.9154,34.1961 37.0803,-2.3108 196.0865,-63.6489 155.116,-83.844 2.3271,-17.9592 -122.9961,-4.118 -257.1304,-4.8907 -105.7084,-0.6089 -216.8891,-15.9835 -275.37613,-24.116 -29.18036,-4.0575 -50.93174,-20.3445 -43.9336,-26.0643 52.54617,-1.4375 409.94443,16.1605 456.70413,-2.954 54.4085,-36.5856 98.6947,-50.358 30.4672,-79.2464 -37.6141,-44.5391 -559.70697,-62.4126 -614.48187,-72.5037 -24.17715,-6.145 -42.24572,-18.3078 -37.16279,-20.047 174.28739,34.3786 353.06136,-10.6044 526.89706,13.1447 62.5165,12.0002 125.4272,39.4749 190.7913,22.4901 52.3556,-17.0753 81.9348,7.1221 132.0435,-14.1577 19.8096,-7.9768 24.9019,-35.5245 30.1577,-49.9265 1.0535,-2.8867 2.6109,-9.4785 1.869,-11.1239 -0.5458,-1.2103 -6.6108,-0.5185 -7.505,-0.6853 z"
                 style="display:block;fill:#57ace2;fill-opacity:1;fill-rule:evenodd;stroke:none;stroke-width:1px;stroke-linecap:butt;stroke-linejoin:miter;stroke-opacity:1" />
              <g
                 id="layer1-6"
                 inkscape:label="Layer 1"
                 transform="matrix(0.37133382,0,0,0.24753252,1473.04,1072.4201)"
                 style="fill:#353d42;fill-opacity:1">
                <g
                   id="g3222"
                   inkscape:label="Oiseau test 02"
                   transform="matrix(1.7915511,0,0,-1.7915511,-201.99278,1014.1287)"
                   style="fill:#353d42;fill-opacity:1">
                  <g
                     id="g3224"
                     style="fill:#353d42;fill-opacity:1">
                    <g
                       id="g3226"
                       clip-path="url(#clipPath3228)"
                       style="fill:#353d42;fill-opacity:1">
                      <g
                         id="g3232"
                         style="fill:#353d42;fill-opacity:1">
                        <path
                           d="m 512.60284,323.9 c 27.4,-13.2 -33.2,31.2 -31.3,31.2 2,0 -21.7,15.1 -25.5,34 l 46.4,24.7 c 0,0 -123.9,-36 -121.1,-36 2.8,0 -52.9,-1.9 -52.9,-1.9 0,0 -39.2,20.9 -37.9,28.4 1.9,10.4 62.4,89.5 48.3,87 -91.8,-16.1 -166.5,-99.6 -168.4,-113.5 -1.9,-14.2 16.1,-22.7 16.1,-22.7 0,0 -57.6,-17 -55.8,-43.5 l -9.4,-11.3 c 0,0 13.2,1.8 13.2,0.9 0,-0.9 52,-18 52,-18 0,0 2.3,-37.4 10.4,-49.1 77.6,-111.6 135.3,-182.6 171.2,-180.7 l -53,176.9 33.1,62.4 -11.3,11.4 c 0,0 39.7,24.5 56.7,20.8 0,0 116.6,0.2 119.2,-1 z"
                           style="fill:#353d42;fill-opacity:1;stroke:#000000;stroke-width:2.82999992;stroke-linecap:butt;stroke-linejoin:round;stroke-miterlimit:10;stroke-dasharray:none;stroke-opacity:1"
                           id="path3234"
                           inkscape:connector-curvature="0" />
                      </g>
                    </g>
                  </g>
                </g>
              </g>
              <g
                 style="fill:#353d42;fill-opacity:1"
                 transform="matrix(0.30049165,0,0,0.17472056,1614.2664,916.09269)"
                 inkscape:label="Layer 1"
                 id="g18905">
                <g
                   style="fill:#353d42;fill-opacity:1"
                   transform="matrix(1.7915511,0,0,-1.7915511,-201.99278,1014.1287)"
                   inkscape:label="Oiseau test 02"
                   id="g18907">
                  <g
                     style="fill:#353d42;fill-opacity:1"
                     id="g18909">
                    <g
                       style="fill:#353d42;fill-opacity:1"
                       clip-path="url(#clipPath3228)"
                       id="g18911">
                      <g
                         style="fill:#353d42;fill-opacity:1"
                         id="g18913">
                        <path
                           inkscape:connector-curvature="0"
                           id="path18915"
                           style="fill:#353d42;fill-opacity:1;stroke:#000000;stroke-width:2.82999992;stroke-linecap:butt;stroke-linejoin:round;stroke-miterlimit:10;stroke-dasharray:none;stroke-opacity:1"
                           d="m 512.60284,323.9 c 27.4,-13.2 -33.2,31.2 -31.3,31.2 2,0 -21.7,15.1 -25.5,34 l 46.4,24.7 c 0,0 -123.9,-36 -121.1,-36 2.8,0 -52.9,-1.9 -52.9,-1.9 0,0 -39.2,20.9 -37.9,28.4 1.9,10.4 62.4,89.5 48.3,87 -91.8,-16.1 -166.5,-99.6 -168.4,-113.5 -1.9,-14.2 16.1,-22.7 16.1,-22.7 0,0 -57.6,-17 -55.8,-43.5 l -9.4,-11.3 c 0,0 13.2,1.8 13.2,0.9 0,-0.9 52,-18 52,-18 0,0 2.3,-37.4 10.4,-49.1 77.6,-111.6 135.3,-182.6 171.2,-180.7 l -53,176.9 33.1,62.4 -11.3,11.4 c 0,0 39.7,24.5 56.7,20.8 0,0 116.6,0.2 119.2,-1 z" />
                      </g>
                    </g>
                  </g>
                </g>
              </g>
            </g>
          </g>
          <g
             style="font-style:normal;font-weight:normal;font-size:40px;line-height:125%;font-family:sans-serif;letter-spacing:0px;word-spacing:0px;fill:#b3b3b3;fill-opacity:1;stroke:none;stroke-width:1px;stroke-linecap:butt;stroke-linejoin:miter;stroke-opacity:1"
             id="text19150"
             transform="translate(6.3816575,-153.15978)">
            <path
               d="m 804.55621,3122.719 -8.26172,0 0,-27.9492 q 0,-3.1641 -0.30761,-6.1084 -0.26367,-2.9444 -1.18653,-4.7022 -1.01074,-1.8896 -2.90039,-2.8564 -1.88965,-0.9668 -5.44922,-0.9668 -3.47168,0 -6.94335,1.7578 -3.47168,1.7139 -6.94336,4.3945 0.13183,1.0108 0.21972,2.3731 0.0879,1.3183 0.0879,2.6367 l 0,31.4209 -8.26172,0 0,-27.9492 q 0,-3.252 -0.30761,-6.1524 -0.26367,-2.9443 -1.18653,-4.7021 -1.01074,-1.8897 -2.90039,-2.8125 -1.88965,-0.9668 -5.44922,-0.9668 -3.38378,0 -6.81152,1.6699 -3.38379,1.6699 -6.76758,4.2627 l 0,36.6504 -8.26172,0 0,-49.0869 8.26172,0 0,5.4492 q 3.86719,-3.208 7.69043,-5.0098 3.86719,-1.8017 8.21778,-1.8017 5.00976,0 8.48144,2.1094 3.51563,2.1093 5.22949,5.8447 5.00977,-4.2188 9.14063,-6.0645 4.13086,-1.8896 8.83301,-1.8896 8.08593,0 11.90918,4.9219 3.86718,4.8779 3.86718,13.6669 l 0,31.8604 z"
               style="font-size:90px;fill:#b3b3b3"
               id="path19161"
               inkscape:connector-curvature="0" />
            <path
               d="m 858.43317,3122.719 -8.21778,0 0,-5.2295 q -1.09863,0.7471 -2.98828,2.1094 -1.8457,1.3183 -3.60351,2.1094 -2.06543,1.0107 -4.7461,1.6699 -2.68066,0.7031 -6.28418,0.7031 -6.63574,0 -11.25,-4.3945 -4.61426,-4.3946 -4.61426,-11.2061 0,-5.581 2.37305,-9.0088 2.41699,-3.4717 6.85547,-5.4492 4.48242,-1.9775 10.7666,-2.6807 6.28418,-0.7031 13.49121,-1.0546 l 0,-1.2745 q 0,-2.8125 -1.01074,-4.6582 -0.9668,-1.8457 -2.8125,-2.9004 -1.75781,-1.0107 -4.21875,-1.3623 -2.46094,-0.3515 -5.1416,-0.3515 -3.25195,0 -7.25098,0.8789 -3.99902,0.8349 -8.26172,2.4609 l -0.43945,0 0,-8.3935 q 2.41699,-0.6592 6.98731,-1.4502 4.57031,-0.791 9.00878,-0.791 5.18555,0 9.00879,0.8789 3.86719,0.8349 6.67969,2.9004 2.76856,2.0214 4.21875,5.2294 1.4502,3.2081 1.4502,7.9541 l 0,33.3106 z m -8.21778,-12.085 0,-13.667 q -3.77929,0.2198 -8.9209,0.6592 -5.09765,0.4395 -8.08593,1.2744 -3.55957,1.0108 -5.75684,3.1641 -2.19726,2.1094 -2.19726,5.8447 0,4.2188 2.54882,6.3721 2.54883,2.1094 7.77832,2.1094 4.35059,0 7.95411,-1.67 3.60351,-1.7138 6.67968,-4.0869 z"
               style="font-size:90px;fill:#b3b3b3"
               id="path19163"
               inkscape:connector-curvature="0" />
            <path
               d="m 914.06793,3122.719 -8.26172,0 0,-5.1416 q -3.55957,3.0762 -7.42675,4.79 -3.86719,1.7139 -8.39356,1.7139 -8.78906,0 -13.97461,-6.7676 -5.1416,-6.7676 -5.1416,-18.7646 0,-6.2403 1.75781,-11.1182 1.80176,-4.8779 4.83399,-8.3057 2.98828,-3.3398 6.94336,-5.0976 3.99902,-1.7578 8.26171,-1.7578 3.86719,0 6.85547,0.8349 2.98828,0.7911 6.28418,2.5049 l 0,-21.2695 8.26172,0 0,68.3789 z m -8.26172,-12.085 0,-28.1689 q -3.33984,-1.4942 -5.97656,-2.0654 -2.63672,-0.5713 -5.75684,-0.5713 -6.94335,0 -10.81054,4.834 -3.86719,4.8339 -3.86719,13.7109 0,8.7451 2.98828,13.3154 2.98828,4.5264 9.58008,4.5264 3.51562,0 7.11914,-1.5381 3.60352,-1.582 6.72363,-4.043 z"
               style="font-size:90px;fill:#b3b3b3"
               id="path19165"
               inkscape:connector-curvature="0" />
            <path
               d="m 971.41656,3099.0325 -36.16699,0 q 0,4.5263 1.36231,7.9101 1.3623,3.3399 3.73535,5.4932 2.28516,2.1094 5.40527,3.1641 3.16406,1.0546 6.94336,1.0546 5.00977,0 10.06348,-1.9775 5.09765,-2.0215 7.25097,-3.9551 l 0.43946,0 0,9.0088 q -4.17481,1.7578 -8.52539,2.9443 -4.35059,1.1866 -9.14063,1.1866 -12.21679,0 -19.07226,-6.5918 -6.85547,-6.6358 -6.85547,-18.8086 0,-12.041 6.54785,-19.1162 6.5918,-7.0752 17.31445,-7.0752 9.93164,0 15.29297,5.8008 5.40527,5.8007 5.40527,16.4794 l 0,4.4825 z m -8.04199,-6.3282 q -0.0439,-6.5039 -3.2959,-10.0634 -3.208,-3.5596 -9.7998,-3.5596 -6.63574,0 -10.59082,3.9111 -3.91113,3.9112 -4.43848,9.7119 l 28.125,0 z"
               style="font-size:90px;fill:#b3b3b3"
               id="path19167"
               inkscape:connector-curvature="0" />
            <path
               d="m 1058.7798,3097.802 q 0,6.1523 -1.7578,11.0742 -1.7138,4.9219 -4.6582,8.2617 -3.1201,3.4717 -6.8554,5.2295 -3.7354,1.7139 -8.2178,1.7139 -4.1748,0 -7.2949,-1.0107 -3.1202,-0.9668 -6.1524,-2.6368 l -0.5273,2.2852 -7.7344,0 0,-68.3789 8.2617,0 0,24.4336 q 3.4717,-2.8565 7.3828,-4.6582 3.9112,-1.8457 8.7891,-1.8457 8.7012,0 13.7109,6.6797 5.0537,6.6797 5.0537,18.8525 z m -8.5253,0.2197 q 0,-8.789 -2.9004,-13.3154 -2.9004,-4.5703 -9.3604,-4.5703 -3.6035,0 -7.2949,1.582 -3.6914,1.5381 -6.8555,3.999 l 0,28.125 q 3.5156,1.5821 6.0205,2.1973 2.5489,0.6152 5.7569,0.6152 6.8554,0 10.7226,-4.4824 3.9112,-4.5263 3.9112,-14.1504 z"
               style="font-size:90px;fill:#b3b3b3"
               id="path19169"
               inkscape:connector-curvature="0" />
            <path
               d="m 1114.107,3073.6321 -28.6523,67.1924 -8.8331,0 9.1407,-20.4786 -19.5557,-46.7138 8.9648,0 15.0733,36.3867 15.2051,-36.3867 8.6572,0 z"
               style="font-size:90px;fill:#b3b3b3"
               id="path19171"
               inkscape:connector-curvature="0" />
            <path
               d="m 1177.2564,3123.5979 q 0,8.3496 -5.1416,13.0078 -5.1416,4.7022 -13.2275,4.7022 -4.3067,0 -7.8662,-0.3955 -3.5157,-0.3516 -5.1416,-0.7471 l 0,-11.3379 1.2304,0 q 1.3184,0.4394 3.2959,0.7471 1.9776,0.3076 3.1201,0.3076 4.5704,0 6.2403,-2.7246 1.6699,-2.7246 1.6699,-8.9649 l 0,-34.1015 -9.3604,0 0,-10.7227 25.1807,0 0,50.2295 z m 0,-57.2607 -16.831,0 0,-11.9971 16.831,0 0,11.9971 z"
               style="font-weight:bold;fill:#b3b3b3"
               id="path19173"
               inkscape:connector-curvature="0" />
            <path
               d="m 1245.064,3107.6458 -8.9209,0 0,15.249 -16.1279,0 0,-15.249 -31.6846,0 0,-12.3926 30.6299,-37.9688 17.1826,0 0,38.4082 8.9209,0 0,11.9532 z m -25.0488,-11.9532 0,-23.6426 -19.0283,23.6426 19.0283,0 z"
               style="font-weight:bold;fill:#b3b3b3"
               id="path19175"
               inkscape:connector-curvature="0" />
            <path
               d="m 1307.5982,3097.3625 q 0,6.1084 -1.8896,11.1182 -1.8457,5.0098 -4.878,8.2617 -3.164,3.4278 -7.1631,5.1856 -3.999,1.7578 -8.5693,1.7578 -4.2187,0 -7.1631,-0.9229 -2.9443,-0.8789 -6.0205,-2.5048 l 0,20.5664 -15.8203,0 0,-67.4561 15.8203,0 0,5.1416 q 3.6475,-2.9004 7.4268,-4.7021 3.8232,-1.8018 8.789,-1.8018 9.2285,0 14.3262,6.7676 5.1416,6.7676 5.1416,18.5888 z m -16.3037,0.3077 q 0,-7.2071 -2.4609,-10.459 -2.461,-3.252 -7.7784,-3.252 -2.2412,0 -4.6142,0.7032 -2.3731,0.6591 -4.5264,1.9335 l 0,24.8291 q 1.582,0.6153 3.3838,0.7911 1.8018,0.1757 3.5596,0.1757 6.2842,0 9.3603,-3.6474 3.0762,-3.6914 3.0762,-11.0742 z"
               style="font-weight:bold;fill:#b3b3b3"
               id="path19177"
               inkscape:connector-curvature="0" />
            <path
               d="m 1371.9781,3107.6458 -8.9209,0 0,15.249 -16.1279,0 0,-15.249 -31.6846,0 0,-12.3926 30.6299,-37.9688 17.1826,0 0,38.4082 8.9209,0 0,11.9532 z m -25.0488,-11.9532 0,-23.6426 -19.0284,23.6426 19.0284,0 z"
               style="font-weight:bold;fill:#b3b3b3"
               id="path19179"
               inkscape:connector-curvature="0" />
            <path
               d="m 1432.5787,3122.719 -15.9082,0 0,-24.4775 q 0,-2.9883 -0.3076,-5.9327 -0.3077,-2.9882 -1.0547,-4.3945 -0.8789,-1.626 -2.5928,-2.373 -1.6699,-0.7471 -4.7022,-0.7471 -2.1533,0 -4.3945,0.7031 -2.1973,0.7031 -4.79,2.2412 l 0,34.9805 -15.8203,0 0,-49.3506 15.8203,0 0,5.4492 q 4.2187,-3.2959 8.0859,-5.0537 3.9111,-1.7578 8.6572,-1.7578 7.9981,0 12.4805,4.6582 4.5264,4.6582 4.5264,13.9307 l 0,32.124 z"
               style="font-weight:bold;fill:#b3b3b3"
               id="path19181"
               inkscape:connector-curvature="0" />
            <path
               d="m 1521.1285,3098.1975 q 0,11.9971 -6.1524,18.9404 -6.1523,6.9434 -16.4795,6.9434 -10.415,0 -16.5673,-6.9434 -6.1084,-6.9433 -6.1084,-18.9404 0,-11.9971 6.1084,-18.9404 6.1523,-6.9873 16.5673,-6.9873 10.3272,0 16.4795,6.9873 6.1524,6.9433 6.1524,18.9404 z m -8.5254,0 q 0,-9.5361 -3.7354,-14.1504 -3.7353,-4.6582 -10.3711,-4.6582 -6.7236,0 -10.4589,4.6582 -3.6914,4.6143 -3.6914,14.1504 0,9.2285 3.7353,14.0186 3.7354,4.7461 10.415,4.7461 6.5918,0 10.3272,-4.7022 3.7793,-4.7461 3.7793,-14.0625 z"
               style="font-size:90px;fill:#b3b3b3"
               id="path19183"
               inkscape:connector-curvature="0" />
            <path
               d="m 1575.0054,3122.719 -8.2617,0 0,-27.9492 q 0,-3.3838 -0.3955,-6.3281 -0.3955,-2.9883 -1.4502,-4.6583 -1.0986,-1.8457 -3.1641,-2.7246 -2.0654,-0.9228 -5.3613,-0.9228 -3.3838,0 -7.0752,1.6699 -3.6914,1.6699 -7.0752,4.2627 l 0,36.6504 -8.2617,0 0,-49.0869 8.2617,0 0,5.4492 q 3.8672,-3.208 7.9981,-5.0098 4.1308,-1.8017 8.4814,-1.8017 7.9541,0 12.1289,4.79 4.1748,4.7901 4.1748,13.7988 l 0,31.8604 z"
               style="font-size:90px;fill:#b3b3b3"
               id="path19185"
               inkscape:connector-curvature="0" />
            <path
               d="m 1672.3443,3098.0657 q 0,12.1728 -7.1191,19.2041 -7.0752,6.9873 -19.9073,6.9873 -12.832,0 -19.9511,-6.9873 -7.0752,-7.0313 -7.0752,-19.2041 0,-12.2608 7.1191,-19.2481 7.1631,-6.9873 19.9072,-6.9873 12.92,0 19.9512,7.0313 7.0752,7.0312 7.0752,19.2041 z m -19.4678,11.997 q 1.5381,-1.8896 2.2852,-4.5263 0.791,-2.6807 0.791,-7.3828 0,-4.3506 -0.791,-7.295 -0.791,-2.9443 -2.1973,-4.7021 -1.4062,-1.8018 -3.3838,-2.5488 -1.9775,-0.7471 -4.2627,-0.7471 -2.2851,0 -4.0869,0.6152 -1.7578,0.6153 -3.3838,2.461 -1.4502,1.7138 -2.3291,4.7021 -0.8349,2.9883 -0.8349,7.5147 0,4.0429 0.747,7.0312 0.7471,2.9444 2.1973,4.7461 1.4063,1.7139 3.3398,2.5049 1.9776,0.791 4.4825,0.791 2.1533,0 4.0869,-0.7031 1.9775,-0.7471 3.3398,-2.461 z"
               style="font-weight:bold;fill:#b3b3b3"
               id="path19187"
               inkscape:connector-curvature="0" />
            <path
               d="m 1735.0982,3097.3625 q 0,6.1084 -1.8896,11.1182 -1.8457,5.0098 -4.878,8.2617 -3.164,3.4278 -7.1631,5.1856 -3.999,1.7578 -8.5693,1.7578 -4.2187,0 -7.1631,-0.9229 -2.9443,-0.8789 -6.0205,-2.5048 l 0,20.5664 -15.8203,0 0,-67.4561 15.8203,0 0,5.1416 q 3.6475,-2.9004 7.4268,-4.7021 3.8232,-1.8018 8.789,-1.8018 9.2285,0 14.3262,6.7676 5.1416,6.7676 5.1416,18.5888 z m -16.3037,0.3077 q 0,-7.2071 -2.4609,-10.459 -2.461,-3.252 -7.7784,-3.252 -2.2412,0 -4.6142,0.7032 -2.3731,0.6591 -4.5264,1.9335 l 0,24.8291 q 1.582,0.6153 3.3838,0.7911 1.8018,0.1757 3.5596,0.1757 6.2842,0 9.3603,-3.6474 3.0762,-3.6914 3.0762,-11.0742 z"
               style="font-weight:bold;fill:#b3b3b3"
               id="path19189"
               inkscape:connector-curvature="0" />
            <path
               d="m 1795.1275,3100.9661 -36.2109,0 q 0.3515,5.8007 4.3945,8.8769 4.0869,3.0762 11.9971,3.0762 5.0097,0 9.7119,-1.8018 4.7021,-1.8017 7.4267,-3.8672 l 1.7579,0 0,12.7002 q -5.3614,2.1534 -10.1075,3.1202 -4.7461,0.9668 -10.5029,0.9668 -14.8535,0 -22.7637,-6.6797 -7.9101,-6.6797 -7.9101,-19.0284 0,-12.2168 7.4707,-19.3359 7.5146,-7.1631 20.5664,-7.1631 12.041,0 18.1054,6.1084 6.0645,6.0645 6.0645,17.4903 l 0,5.5371 z m -15.7324,-9.2725 q -0.1319,-4.9658 -2.461,-7.4707 -2.3291,-2.5049 -7.2509,-2.5049 -4.5703,0 -7.5147,2.3731 -2.9443,2.373 -3.2959,7.6025 l 20.5225,0 z"
               style="font-weight:bold;fill:#b3b3b3"
               id="path19191"
               inkscape:connector-curvature="0" />
            <path
               d="m 1855.8599,3122.719 -15.9082,0 0,-24.4775 q 0,-2.9883 -0.3076,-5.9327 -0.3076,-2.9882 -1.0547,-4.3945 -0.8789,-1.626 -2.5928,-2.373 -1.6699,-0.7471 -4.7021,-0.7471 -2.1533,0 -4.3945,0.7031 -2.1973,0.7031 -4.7901,2.2412 l 0,34.9805 -15.8203,0 0,-49.3506 15.8203,0 0,5.4492 q 4.2188,-3.2959 8.086,-5.0537 3.9111,-1.7578 8.6572,-1.7578 7.998,0 12.4805,4.6582 4.5263,4.6582 4.5263,13.9307 l 0,32.124 z"
               style="font-weight:bold;fill:#b3b3b3"
               id="path19193"
               inkscape:connector-curvature="0" />
            <path
               d="m 1895.982,3124.0374 q -6.46,0 -11.8213,-1.5381 -5.3174,-1.5381 -9.2725,-4.7461 -3.9111,-3.208 -6.0644,-8.086 -2.1533,-4.8779 -2.1533,-11.4257 0,-6.8995 2.2851,-11.9092 2.3291,-5.0098 6.46,-8.3057 3.999,-3.1201 9.2285,-4.5703 5.2295,-1.4502 10.8545,-1.4502 5.0537,0 9.3164,1.0986 4.2627,1.0987 7.9541,2.8565 l 0,13.4912 -2.2412,0 q -0.9229,-0.791 -2.2412,-1.8457 -1.2744,-1.0547 -3.1641,-2.0654 -1.8017,-0.9668 -3.9551,-1.5821 -2.1533,-0.6592 -5.0097,-0.6592 -6.3281,0 -9.7559,4.043 -3.3838,3.999 -3.3838,10.8985 0,7.1191 3.4717,10.8105 3.5156,3.6914 9.9316,3.6914 2.9883,0 5.3614,-0.6592 2.417,-0.7031 3.999,-1.6259 1.4941,-0.879 2.6367,-1.8458 1.1426,-0.9667 2.1094,-1.8896 l 2.2412,0 0,13.4912 q -3.7353,1.7578 -7.8223,2.7686 -4.0429,1.0547 -8.9648,1.0547 z"
               style="font-weight:bold;fill:#b3b3b3"
               id="path19195"
               inkscape:connector-curvature="0" />
            <path
               d="m 1939.1802,3122.719 -15.8203,0 0,-68.3789 15.8203,0 0,68.3789 z"
               style="font-weight:bold;fill:#b3b3b3"
               id="path19197"
               inkscape:connector-curvature="0" />
            <path
               d="m 1969.942,3122.719 -15.8204,0 0,-49.3506 15.8204,0 0,49.3506 z m 0.4394,-56.3818 -16.6992,0 0,-11.9971 16.6992,0 0,11.9971 z"
               style="font-weight:bold;fill:#b3b3b3"
               id="path19199"
               inkscape:connector-curvature="0" />
            <path
               d="m 2036.3873,3097.3625 q 0,6.1084 -1.8897,11.1182 -1.8457,5.0098 -4.8779,8.2617 -3.1641,3.4278 -7.1631,5.1856 -3.999,1.7578 -8.5693,1.7578 -4.2188,0 -7.1631,-0.9229 -2.9444,-0.8789 -6.0205,-2.5048 l 0,20.5664 -15.8203,0 0,-67.4561 15.8203,0 0,5.1416 q 3.6474,-2.9004 7.4267,-4.7021 3.8233,-1.8018 8.7891,-1.8018 9.2285,0 14.3262,6.7676 5.1416,6.7676 5.1416,18.5888 z m -16.3037,0.3077 q 0,-7.2071 -2.461,-10.459 -2.4609,-3.252 -7.7783,-3.252 -2.2412,0 -4.6143,0.7032 -2.373,0.6591 -4.5263,1.9335 l 0,24.8291 q 1.582,0.6153 3.3838,0.7911 1.8017,0.1757 3.5595,0.1757 6.2842,0 9.3604,-3.6474 3.0762,-3.6914 3.0762,-11.0742 z"
               style="font-weight:bold;fill:#b3b3b3"
               id="path19201"
               inkscape:connector-curvature="0" />
            <path
               d="m 2077.6959,3109.843 0,-10.2832 q -3.208,0.2637 -6.9434,0.7471 -3.7353,0.4394 -5.6689,1.0547 -2.3731,0.747 -3.6475,2.1972 -1.2305,1.4063 -1.2305,3.7354 0,1.5381 0.2637,2.5049 0.2637,0.9668 1.3184,1.8457 1.0107,0.8789 2.417,1.3183 1.4062,0.3955 4.3945,0.3955 2.373,0 4.79,-0.9668 2.461,-0.9668 4.3067,-2.5488 z m 0,7.6465 q -1.2745,0.9668 -3.1641,2.3291 -1.8896,1.3623 -3.5596,2.1533 -2.3291,1.0547 -4.834,1.5381 -2.5048,0.5274 -5.4931,0.5274 -7.0313,0 -11.7774,-4.3506 -4.7461,-4.3506 -4.7461,-11.1182 0,-5.4053 2.417,-8.833 2.417,-3.4277 6.8555,-5.4053 4.3945,-1.9775 10.8984,-2.8125 6.5039,-0.8349 13.4913,-1.2304 l 0,-0.2637 q 0,-4.0869 -3.3399,-5.625 -3.3398,-1.582 -9.8437,-1.582 -3.9112,0 -8.3497,1.4062 -4.4384,1.3623 -6.372,2.1094 l -1.4502,0 0,-11.9092 q 2.5049,-0.6592 8.1299,-1.5381 5.6689,-0.9228 11.3379,-0.9228 13.4912,0 19.4677,4.1748 6.0205,4.1308 6.0205,13.0078 l 0,33.5742 -15.6884,0 0,-5.2295 z"
               style="font-weight:bold;fill:#b3b3b3"
               id="path19203"
               inkscape:connector-curvature="0" />
            <path
               d="m 2143.5259,3088.4417 -1.4062,0 q -1.0108,-0.3516 -3.252,-0.5274 -2.2412,-0.1758 -3.7353,-0.1758 -3.3838,0 -5.9766,0.4395 -2.5928,0.4394 -5.581,1.4941 l 0,33.0469 -15.8203,0 0,-49.3506 15.8203,0 0,7.251 q 5.2295,-4.4824 9.0966,-5.9326 3.8672,-1.4942 7.1192,-1.4942 0.8349,0 1.8896,0.044 1.0547,0.044 1.8457,0.1318 l 0,15.0733 z"
               style="font-weight:bold;fill:#b3b3b3"
               id="path19205"
               inkscape:connector-curvature="0" />
            <path
               d="m 2183.9556,3122.2795 q -2.5488,0.6592 -5.4052,1.0108 -2.8565,0.3955 -6.9874,0.3955 -9.2285,0 -13.7548,-3.7354 -4.4825,-3.7353 -4.4825,-12.788 l 0,-23.0713 -6.5039,0 0,-10.7227 6.5039,0 0,-14.1064 15.8204,0 0,14.1064 14.8095,0 0,10.7227 -14.8095,0 0,17.4902 q 0,2.5928 0.044,4.5264 0.044,1.9336 0.7031,3.4716 0.6153,1.5381 2.1533,2.461 1.5821,0.8789 4.5704,0.8789 1.2304,0 3.208,-0.5274 2.0215,-0.5273 2.8125,-0.9668 l 1.3183,0 0,10.8545 z"
               style="font-weight:bold;fill:#b3b3b3"
               id="path19207"
               inkscape:connector-curvature="0" />
            <path
               d="m 2210.3668,3122.719 -16.4356,0 0,-17.2705 16.4356,0 0,17.2705 z"
               style="font-weight:bold;fill:#b3b3b3"
               id="path19209"
               inkscape:connector-curvature="0" />
            <path
               d="m 2276.3287,3098.0657 q 0,12.1728 -7.1192,19.2041 -7.0752,6.9873 -19.9072,6.9873 -12.832,0 -19.9512,-6.9873 -7.0752,-7.0313 -7.0752,-19.2041 0,-12.2608 7.1192,-19.2481 7.1631,-6.9873 19.9072,-6.9873 12.9199,0 19.9512,7.0313 7.0752,7.0312 7.0752,19.2041 z m -19.4678,11.997 q 1.5381,-1.8896 2.2852,-4.5263 0.791,-2.6807 0.791,-7.3828 0,-4.3506 -0.791,-7.295 -0.7911,-2.9443 -2.1973,-4.7021 -1.4063,-1.8018 -3.3838,-2.5488 -1.9775,-0.7471 -4.2627,-0.7471 -2.2851,0 -4.0869,0.6152 -1.7578,0.6153 -3.3838,2.461 -1.4502,1.7138 -2.3291,4.7021 -0.835,2.9883 -0.835,7.5147 0,4.0429 0.7471,7.0312 0.7471,2.9444 2.1973,4.7461 1.4062,1.7139 3.3398,2.5049 1.9776,0.791 4.4824,0.791 2.1534,0 4.087,-0.7031 1.9775,-0.7471 3.3398,-2.461 z"
               style="font-weight:bold;fill:#b3b3b3"
               id="path19211"
               inkscape:connector-curvature="0" />
            <path
               d="m 2323.3502,3088.4417 -1.4063,0 q -1.0107,-0.3516 -3.2519,-0.5274 -2.2413,-0.1758 -3.7354,-0.1758 -3.3838,0 -5.9766,0.4395 -2.5927,0.4394 -5.581,1.4941 l 0,33.0469 -15.8203,0 0,-49.3506 15.8203,0 0,7.251 q 5.2295,-4.4824 9.0967,-5.9326 3.8672,-1.4942 7.1191,-1.4942 0.835,0 1.8897,0.044 1.0546,0.044 1.8457,0.1318 l 0,15.0733 z"
               style="font-weight:bold;fill:#b3b3b3"
               id="path19213"
               inkscape:connector-curvature="0" />
            <path
               d="m 2380.2154,3117.05 q 0,6.9434 -1.9775,11.6895 -1.9776,4.7461 -5.5372,7.4268 -3.5595,2.7246 -8.6132,3.9111 -5.0098,1.2305 -11.3379,1.2305 -5.1416,0 -10.1514,-0.6153 -4.9658,-0.6152 -8.6133,-1.4941 l 0,-12.3486 1.9336,0 q 2.9004,1.1425 7.0752,2.0654 4.1748,0.9668 7.4707,0.9668 4.3945,0 7.1192,-0.835 2.7685,-0.791 4.2187,-2.2851 1.3623,-1.4063 1.9775,-3.6036 0.6153,-2.1972 0.6153,-5.2734 l 0,-0.9228 q -2.8565,2.3291 -6.3281,3.6914 -3.4717,1.3623 -7.7344,1.3623 -10.3711,0 -15.9961,-6.2403 -5.625,-6.2402 -5.625,-18.9843 0,-6.1084 1.7139,-10.5469 1.7138,-4.4385 4.8339,-7.7344 2.9004,-3.0762 7.1192,-4.79 4.2627,-1.7139 8.7012,-1.7139 3.999,0 7.2509,0.9668 3.2959,0.9229 5.9766,2.5928 l 0.5713,-2.1973 15.3369,0 0,43.6816 z m -15.8203,-9.8876 0,-22.3682 q -1.3623,-0.5713 -3.3399,-0.8789 -1.9775,-0.3516 -3.5595,-0.3516 -6.2403,0 -9.3604,3.6035 -3.1201,3.5596 -3.1201,9.9756 0,7.1192 2.6367,9.9317 2.6807,2.8125 7.9102,2.8125 2.373,0 4.6582,-0.7471 2.2851,-0.7471 4.1748,-1.9775 z"
               style="font-weight:bold;fill:#b3b3b3"
               id="path19215"
               inkscape:connector-curvature="0" />
          </g>
        </g>
      </g>
    </g>
  </g>
</svg>
